<svg width="74" height="64" viewBox="0 0 74 64" fill="none" xmlns="http://www.w3.org/2000/svg">
<path d="M0 15C0 6.71573 6.70603 1.73456e-06 14.9903 1.57179e-06C42.4349 1.03253e-06 79.7499 -5.12605e-07 73.2542 1.80659e-07C67.8998 7.52111e-07 66.2168 30.0902 65.6878 49.006C65.4562 57.287 58.7296 64 50.4453 64H15C6.71574 64 0 57.2843 0 49V15Z" fill="#9C27B0"/>
<path d="M6.69327 16.0001C6.69327 13.5901 8.64694 11.6365 11.0569 11.6365H54.3884C56.7984 11.6365 58.7521 13.5901 58.7521 16.0001V16.0001C58.7521 18.4101 56.7984 20.3638 54.3884 20.3638H11.0569C8.64693 20.3638 6.69327 18.4101 6.69327 16.0001V16.0001Z" fill="#FAFAFA" fill-opacity="0.5"/>
<path d="M6.69327 32.0001C6.69327 29.5901 8.64694 27.6365 11.0569 27.6365H54.3884C56.7984 27.6365 58.7521 29.5901 58.7521 32.0001V32.0001C58.7521 34.4101 56.7984 36.3638 54.3884 36.3638H11.0569C8.64693 36.3638 6.69327 34.4101 6.69327 32.0001V32.0001Z" fill="#FAFAFA" fill-opacity="0.5"/>
<path d="M32.7227 48.0001C32.7227 45.5901 34.6764 43.6365 37.0863 43.6365H54.3884C56.7984 43.6365 58.7521 45.5901 58.7521 48.0001V48.0001C58.7521 50.4101 56.7984 52.3638 54.3884 52.3638H37.0863C34.6763 52.3638 32.7227 50.4101 32.7227 48.0001V48.0001Z" fill="#FAFAFA" fill-opacity="0.5"/>
</svg>
