<svg width="1000" height="1000" viewBox="0 0 1000 1000" fill="none" xmlns="http://www.w3.org/2000/svg">
<rect width="1000" height="1000" rx="100" fill="#121212"/>
<path d="M714.201 757V769.5H726.701V757H714.201ZM604.338 757L593.665 763.506L597.318 769.5H604.338V757ZM390.471 406.17L401.144 399.664L377.971 361.65V406.17H390.471ZM390.471 757V769.5H402.971V757H390.471ZM280.607 757H268.107V769.5H280.607V757ZM280.607 223.797V211.297H268.107V223.797H280.607ZM390.471 223.797L401.145 217.292L397.492 211.297H390.471V223.797ZM604.704 575.359L594.03 581.864L617.204 619.894V575.359H604.704ZM604.704 223.797V211.297H592.204V223.797H604.704ZM714.201 223.797H726.701V211.297H714.201V223.797ZM714.201 744.5H604.338V769.5H714.201V744.5ZM615.011 750.494L401.144 399.664L379.798 412.676L593.665 763.506L615.011 750.494ZM377.971 406.17V757H402.971V406.17H377.971ZM390.471 744.5H280.607V769.5H390.471V744.5ZM293.107 757V223.797H268.107V757H293.107ZM280.607 236.297H390.471V211.297H280.607V236.297ZM379.796 230.302L594.03 581.864L615.378 568.855L401.145 217.292L379.796 230.302ZM617.204 575.359V223.797H592.204V575.359H617.204ZM604.704 236.297H714.201V211.297H604.704V236.297ZM701.701 223.797V757H726.701V223.797H701.701Z" fill="white"/>
</svg>
