<svg width="48" height="48" viewBox="0 0 48 48" fill="none" xmlns="http://www.w3.org/2000/svg">
    <g clip-path="url(#clip0_958_253)">
        <path d="M36.75 0H11.25C5.0368 0 0 5.0368 0 11.25V36.75C0 42.9632 5.0368 48 11.25 48H36.75C42.9632 48 48 42.9632 48 36.75V11.25C48 5.0368 42.9632 0 36.75 0Z"
              fill="#F4F2ED"/>
        <g clip-path="url(#clip1_958_253)">
            <path d="M32.8214 18.011L35.8168 12.9176C35.8993 12.777 35.9216 12.6101 35.8788 12.4534C35.836 12.2967 35.7317 12.1631 35.5886 12.0818C35.4454 12.0008 35.2753 11.979 35.1157 12.021C34.9561 12.063 34.82 12.1655 34.7373 12.3059L31.7046 17.4638C29.3848 16.4247 26.7801 15.8458 24.0007 15.8458C21.2213 15.8458 18.6161 16.4247 16.2969 17.4638L13.2641 12.3058C13.1813 12.1654 13.0452 12.0629 12.8856 12.0209C12.7259 11.9789 12.5558 12.0008 12.4126 12.0818C12.2695 12.163 12.1651 12.2967 12.1223 12.4534C12.0796 12.6101 12.1019 12.7771 12.1845 12.9176L15.18 18.011C10.0364 20.7578 6.5185 25.8703 6.00391 31.9103H41.9975C41.4824 25.8703 37.9644 20.7578 32.8214 18.011ZM32.2701 23.9351C33.0895 23.9351 33.7559 24.6012 33.7559 25.4198C33.7559 26.2387 33.0895 26.9052 32.2701 26.9052C31.4509 26.9052 30.7845 26.2387 30.7845 25.4198C30.7845 24.6012 31.4509 23.9351 32.2701 23.9351ZM15.7312 23.9351C16.5503 23.9351 17.2169 24.6012 17.2169 25.4198C17.2169 26.2387 16.5503 26.9052 15.7312 26.9052C14.9117 26.9052 14.2454 26.2387 14.2454 25.4198C14.2454 24.6012 14.9119 23.9351 15.7312 23.9351Z"
                  fill="#3DDC84"/>
        </g>
    </g>
    <defs>
        <clipPath id="clip0_958_253">
            <rect width="48" height="48" fill="white"/>
        </clipPath>
        <clipPath id="clip1_958_253">
            <rect width="36" height="20" fill="white" transform="translate(6 12)"/>
        </clipPath>
    </defs>
</svg>