<svg width="48" height="48" viewBox="0 0 48 48" fill="none" xmlns="http://www.w3.org/2000/svg">
    <g clip-path="url(#clip0_958_244)">
        <path d="M36.75 0H11.25C5.0368 0 0 5.0368 0 11.25V36.75C0 42.9632 5.0368 48 11.25 48H36.75C42.9632 48 48 42.9632 48 36.75V11.25C48 5.0368 42.9632 0 36.75 0Z"
              fill="#242938"/>
        <g clip-path="url(#clip1_958_244)">
            <path d="M23.8749 7C24.4978 7.01078 25.1082 7.17938 25.6506 7.4905L36.9649 13.9783C37.4204 14.2399 37.8236 14.5859 38.1534 14.9984L38.1646 14.9917L38.3332 15.2427L38.353 15.2715L38.5636 15.5865L38.5486 15.5957C38.828 16.1125 38.9817 16.6764 38.9873 17.2502V30.4388C38.9934 31.1051 38.8268 31.7612 38.504 32.3413C38.1813 32.9214 37.7139 33.4051 37.1487 33.7437L25.9572 40.448C25.4931 40.7262 24.975 40.8989 24.4387 40.954L24.4386 40.9709L23.7228 40.9768L23.7232 40.9587C23.1943 40.9105 22.6815 40.7485 22.219 40.4835L10.3313 33.6661C9.52365 33.2045 9.02109 32.3393 9.01172 31.3939V17.4267C9.01839 16.9341 9.10293 16.4587 9.263 16.0214L9.24965 16.0137L9.55596 15.3638L9.57329 15.3735C9.85803 14.9028 10.252 14.5102 10.7208 14.2299L21.9125 7.527C22.4776 7.18808 23.1206 7.00631 23.7769 7L23.8749 7ZM9.88991 16.3776L9.86485 16.4584C9.76532 16.7931 9.71603 17.1546 9.71978 17.5314V31.3904C9.72284 31.7267 9.81313 32.0562 9.98154 32.3458C10.15 32.6354 10.3906 32.8748 10.6791 33.04L22.5672 39.8576C22.9194 40.0594 23.3079 40.1876 23.7096 40.2348L23.7343 40.2371L23.7371 39.6508L23.7395 37.1916L23.7357 34.4001L23.7197 34.3985C23.4737 34.3656 23.2343 34.2942 23.0099 34.1868L22.9263 34.1448L22.8524 34.1041L15.6504 29.9741C15.3886 29.8243 15.1704 29.607 15.0177 29.3443C14.8646 29.0806 14.7826 28.7805 14.78 28.4743L14.7801 20.0795C14.7776 19.8124 14.8106 19.5521 14.8785 19.3066L14.9016 19.2281L9.88991 16.3775V16.3776ZM37.9403 15.9647L32.999 18.9609L33.0099 18.9838C33.1319 19.2511 33.2032 19.5355 33.2168 19.8261L33.219 19.9055L33.2188 27.8943C33.2229 28.3228 33.1157 28.7449 32.9082 29.118C32.7006 29.4911 32.3999 29.8022 32.0364 30.0199L25.2565 34.0811C25.0232 34.221 24.7681 34.3195 24.5022 34.3724L24.444 34.383L24.4452 34.951L24.4475 38.2414L24.4428 40.1739L24.4421 40.2298L24.548 40.2145C24.8871 40.1586 25.2143 40.0442 25.5154 39.8763L25.5974 39.829L36.789 33.1248C37.2471 32.8503 37.6259 32.4582 37.8875 31.988C38.1495 31.5166 38.2845 30.9835 38.279 30.4423L38.2793 17.2536C38.2753 16.8461 38.1741 16.4389 37.987 16.0562L37.9403 15.9647ZM23.5312 17.2933C23.4241 17.3254 23.3211 17.3708 23.225 17.4284L18.6803 20.1503C18.5482 20.2293 18.4321 20.3331 18.3382 20.4562C18.2832 20.5283 18.236 20.6061 18.1974 20.6884L18.1729 20.7503C18.1151 20.8894 18.0784 21.0365 18.064 21.1868C18.0587 21.2455 18.056 21.305 18.0566 21.3651V26.9949C18.0583 27.157 18.1019 27.3159 18.183 27.4556C18.2641 27.5953 18.3801 27.7107 18.5193 27.7902L23.347 30.5588C23.5564 30.6789 23.7932 30.741 24.0337 30.739L24.0852 30.737L24.0856 32.2527L24.0889 33.6988L24.0854 30.7368C24.3096 30.727 24.5281 30.6614 24.7215 30.5457L29.2662 27.8233C29.474 27.6989 29.6458 27.5211 29.7644 27.3079C29.7835 27.2736 29.8004 27.2384 29.8165 27.2025C29.9008 27.0161 29.9437 26.8132 29.9421 26.6081L29.9422 21.2513C29.9411 21.1548 29.9286 21.0587 29.9051 20.9651C29.8896 20.903 29.8696 20.8422 29.8452 20.7832C29.8187 20.7187 29.7873 20.6564 29.7514 20.5968L29.7307 20.563L29.7093 20.5297C29.6763 20.4805 29.6405 20.4333 29.602 20.3883C29.4859 20.2527 29.3478 20.1381 29.1938 20.0495L24.5993 17.4151C24.4386 17.3226 24.2611 17.2641 24.0775 17.2432C23.8939 17.2223 23.7081 17.2393 23.5312 17.2933ZM23.7837 7.71864C23.2517 7.72381 22.7304 7.87121 22.2724 8.14601L11.0807 14.8488C10.7454 15.0491 10.4583 15.3228 10.2403 15.6499L10.1915 15.7254L15.2148 18.5809L15.2669 18.5088C15.4197 18.3061 15.6063 18.1323 15.8182 17.9951L15.8842 17.9539L22.6642 13.893C23.0276 13.6749 23.4411 13.5579 23.8632 13.5538C24.2853 13.5496 24.701 13.6584 25.0685 13.8693L31.9229 17.8002C32.1596 17.9362 32.3745 18.108 32.5601 18.3099L32.6063 18.3616L37.5377 15.3713L37.4835 15.3086C37.2545 15.0517 36.9895 14.8304 36.6971 14.6518L36.6167 14.604L25.3025 8.11641C24.8395 7.8507 24.3157 7.71355 23.7838 7.71876L23.7837 7.71864Z"
                  fill="#4285F4"/>
        </g>
    </g>
    <defs>
        <clipPath id="clip0_958_244">
            <rect width="48" height="48" fill="white"/>
        </clipPath>
        <clipPath id="clip1_958_244">
            <rect width="30" height="34" fill="white" transform="translate(9 7)"/>
        </clipPath>
    </defs>
</svg>