<svg width="48" height="48" viewBox="0 0 48 48" fill="none" xmlns="http://www.w3.org/2000/svg">
    <g clip-path="url(#clip0_958_170)">
        <path d="M36.75 0H11.25C5.0368 0 0 5.0368 0 11.25V36.75C0 42.9632 5.0368 48 11.25 48H36.75C42.9632 48 48 42.9632 48 36.75V11.25C48 5.0368 42.9632 0 36.75 0Z"
              fill="#F4F2ED"/>
        <g clip-path="url(#clip1_958_170)">
            <g opacity="0.783">
                <path d="M21.3427 10.1456L10.2099 21.5269C6.01024 25.7266 12.9434 25.3787 15.4532 26.9691C16.6212 27.7146 11.7257 28.6837 12.7197 29.7026C13.6889 30.6966 18.5843 31.616 19.5535 32.5852C20.5226 33.5792 17.5903 34.6229 18.5595 35.6417C19.5038 36.6357 21.7651 35.6914 22.1627 37.9528C22.4609 39.6177 26.3127 38.7977 28.0522 37.3564C29.1207 36.4369 26.1884 36.4369 27.1576 35.4429C29.5929 32.9828 31.7548 34.3247 32.6246 32.0633C33.1216 30.8457 28.9468 29.9759 30.065 29.2056C32.724 27.3418 42.4155 26.3975 37.9425 21.9245L26.4369 10.1456C24.9956 8.80375 22.6597 8.80375 21.3427 10.1456ZM34.0907 32.0633C34.0907 32.6349 38.4892 32.9579 38.2407 31.9391C37.8928 30.1996 34.5629 30.3487 34.0907 32.0633ZM15.3538 35.0702C16.3478 35.9399 17.8637 34.8714 18.3358 33.6786C17.3667 32.3864 13.7883 33.7283 15.3538 35.0702ZM33.544 33.2561C32.3015 34.3992 33.7677 35.5672 34.9853 34.7968C35.3084 34.5732 34.9605 33.5295 33.544 33.2561Z"
                      fill="black"/>
                <path opacity="0.576"
                      d="M21.3427 10.3941L10.2099 21.7754C6.01024 25.9999 12.9434 25.652 15.4532 27.2424C16.6212 27.9879 11.7257 28.9571 12.7197 29.9759C13.6889 30.9699 18.5843 31.8894 19.5535 32.8585C20.5226 33.8525 17.5903 34.8962 18.5595 35.9151C19.5038 36.9091 21.7651 35.9648 22.1627 38.2261C22.4609 39.8911 26.3127 39.071 28.0522 37.6297C29.1207 36.7103 26.1884 36.7103 27.1576 35.7163C29.5929 33.2561 31.7548 34.598 32.6246 32.3367C33.1216 31.119 28.9468 30.2493 30.065 29.4789C32.6991 27.6152 42.4155 26.6709 37.9425 22.1979L26.4369 10.3941C24.9956 9.05222 22.6597 9.05222 21.3427 10.3941ZM34.0907 32.3367C34.0907 32.9082 38.4892 33.2313 38.2407 32.2124C37.8928 30.4729 34.5629 30.5972 34.0907 32.3367ZM15.3538 35.3187C16.3478 36.1884 17.8637 35.1199 18.3358 33.9271C17.3667 32.6597 13.7883 34.0016 15.3538 35.3187ZM33.544 33.5295C32.3015 34.6726 33.7677 35.8405 34.9853 35.0702C35.3084 34.8465 34.9605 33.778 33.544 33.5295Z"
                      fill="black"/>
            </g>
            <path d="M21.3427 9.87526L10.2099 21.2566C6.01024 25.4562 12.9434 25.1083 15.4532 26.6987C16.6212 27.4442 11.7257 28.4134 12.7197 29.4322C13.6889 30.4262 18.5843 31.3457 19.5535 32.3148C20.5226 33.3088 17.5903 34.3525 18.5595 35.3714C19.5038 36.3654 21.7651 35.4211 22.1627 37.6824C22.4609 39.3474 26.3127 38.5273 28.0522 37.086C29.1207 36.1666 26.1884 36.1666 27.1576 35.1726C29.5929 32.7124 31.7548 34.0543 32.6246 31.793C33.1216 30.5753 28.9468 29.7056 30.065 28.9352C32.6991 27.0715 42.4155 26.1272 37.9425 21.6542L26.4369 9.87526C24.9956 8.53336 22.6597 8.53336 21.3427 9.87526ZM34.0907 31.793C34.0907 32.3645 38.4892 32.6876 38.2407 31.6687C37.8928 29.9541 34.5629 30.0783 34.0907 31.793ZM15.3538 34.7998C16.3478 35.6696 17.8637 34.601 18.3358 33.4082C17.3667 32.116 13.7883 33.4828 15.3538 34.7998ZM33.544 32.9858C32.3015 34.1289 33.7677 35.2968 34.9853 34.5265C35.3084 34.3028 34.9605 33.2591 33.544 32.9858Z"
                  fill="black"/>
            <mask id="mask0_958_170" style="mask-type:luminance" maskUnits="userSpaceOnUse" x="9" y="9" width="30" height="30">
                <path d="M21.399 10.1284L10.4895 21.3087C6.35231 25.446 13.1492 25.1012 15.6118 26.6527C16.7446 27.3914 11.9671 28.3519 12.9275 29.3369C13.888 30.322 18.6655 31.2085 19.6259 32.169C20.5863 33.154 17.7051 34.1883 18.6409 35.1487C19.5767 36.1338 21.793 35.198 22.187 37.4144C22.4826 39.0643 26.275 38.227 27.9496 36.8233L27.0877 34.9517C29.4764 32.5384 31.5943 33.8682 32.4562 31.6518C32.9241 30.4697 28.8608 29.6078 29.9443 28.8444C32.5301 27.022 42.0605 26.0862 37.677 21.7028L26.3735 10.1284C24.9945 8.82318 22.6796 8.82318 21.399 10.1284V10.1284ZM18.764 27.2683C19.0102 27.2683 26.9153 28.3272 23.8616 29.1399C22.7042 29.4601 17.3603 27.2683 18.764 27.2683ZM33.9092 31.6518C33.9092 32.2182 38.2188 32.5137 37.9972 31.5287C37.6524 29.8295 34.3771 29.9772 33.9092 31.6518V31.6518ZM15.5133 34.607C16.4984 35.4443 17.9759 34.41 18.4438 33.2279C17.508 31.9719 13.9865 33.3018 15.5133 34.607ZM33.392 32.8339C32.1853 33.9421 33.6137 35.0995 34.7957 34.3361C35.0913 34.1144 34.7465 33.0801 33.392 32.8339Z"
                      fill="white"/>
            </mask>
            <g mask="url(#mask0_958_170)">
                <path d="M21.399 10.1284L10.4895 21.3087C6.35231 25.446 13.1492 25.1012 15.6118 26.6527C16.7446 27.3914 11.9671 28.3519 12.9275 29.3369C13.888 30.322 18.6655 31.2085 19.6259 32.169C20.5863 33.154 17.7051 34.1883 18.6409 35.1487C19.5767 36.1338 21.793 35.198 22.187 37.4144C22.4826 39.0643 26.275 38.227 27.9496 36.8233L27.0877 34.9517C29.4764 32.5384 31.5943 33.8682 32.4562 31.6518C32.9241 30.4697 28.8608 29.6078 29.9443 28.8444C32.5301 27.022 42.0605 26.0862 37.677 21.7028L26.3735 10.1284C24.9945 8.82318 22.6796 8.82318 21.399 10.1284ZM18.764 27.2683C19.0102 27.2683 26.9153 28.3272 23.8616 29.1399C22.7042 29.4601 17.3603 27.2683 18.764 27.2683ZM33.9092 31.6518C33.9092 32.2182 38.2188 32.5137 37.9972 31.5287C37.6524 29.8295 34.3771 29.9772 33.9092 31.6518ZM15.5133 34.607C16.4984 35.4443 17.9759 34.41 18.4438 33.2279C17.508 31.9719 13.9865 33.3018 15.5133 34.607ZM33.392 32.8339C32.1853 33.9421 33.6137 35.0995 34.7957 34.3361C35.0913 34.1144 34.7465 33.0801 33.392 32.8339Z"
                      fill="url(#paint0_linear_958_170)"/>
            </g>
            <path opacity="0.505"
                  d="M11.2031 21.8778C8.17137 24.8598 13.4893 24.0398 17.5647 25.6302L26.0137 10.7947C24.7463 9.47769 23.1062 9.60194 21.9383 10.7947L11.2031 21.8778Z"
                  fill="url(#paint1_linear_958_170)"/>
            <path d="M25.7667 10.6953L30.1652 15.1683C30.5628 15.5659 30.5628 16.4108 30.3391 16.6593L28.1523 14.8701L27.7299 17.4793L25.9158 16.5102L22.9835 18.3739L22.0144 14.4725L20.4488 17.8769L16.4977 17.8272C15.7522 17.8272 15.8516 17.0569 16.6219 16.2617C18.1626 14.5719 21.1446 11.6644 22.0889 10.6704C23.0829 9.67643 24.7727 9.72613 25.7667 10.6953Z"
                  fill="url(#paint2_linear_958_170)"/>
            <path opacity="0.217"
                  d="M19.7271 31.8427C19.7271 31.8427 20.1992 32.5633 20.1495 32.9112C20.0501 33.5822 18.6088 33.9301 18.9319 34.5265C19.2549 35.1229 20.398 34.775 21.3423 35.3962C22.2866 36.0175 22.0381 37.26 22.7339 37.583C24.0758 38.2043 27.6542 36.5145 27.4554 36.5642C27.2815 36.589 23.9516 37.2848 23.2061 36.6884C22.3612 35.9926 22.1127 35.5205 21.4666 35.098C20.8702 34.7253 20.0501 34.5513 19.8513 34.2531C19.6525 33.9301 20.2489 33.5325 20.2738 32.9361C20.3235 32.5385 19.7271 31.8427 19.7271 31.8427Z"
                  fill="url(#paint3_radial_958_170)"/>
            <g opacity="0.276">
                <path d="M19.7271 31.8427C19.7271 31.8427 20.1992 32.5633 20.1495 32.9112C20.0501 33.5822 18.6088 33.9301 18.9319 34.5265C19.2549 35.1229 20.398 34.775 21.3423 35.3962C22.2866 36.0175 22.0381 37.26 22.7339 37.583C24.0758 38.2043 27.6542 36.5145 27.4554 36.5642C21.5411 36.589 22.6594 35.0732 20.3732 34.0543C20.0501 33.9052 20.2241 33.5076 20.2738 32.9112C20.3235 32.5385 19.7271 31.8427 19.7271 31.8427Z"
                      fill="url(#paint4_radial_958_170)"/>
            </g>
            <path opacity="0.453"
                  d="M29.7664 28.7364C35.0594 26.7981 36.7741 26.5248 38.5136 24.7604C36.4759 26.4751 32.2017 27.3945 28.7227 28.9104L29.7664 28.7364Z"
                  fill="url(#paint5_radial_958_170)"/>
            <g opacity="0.512">
                <path d="M29.7664 28.4879C38.4887 25.4065 37.0226 25.4065 38.5136 24.5119C35.7304 25.5805 30.5616 25.6799 28.7227 28.6619L29.7664 28.4879Z"
                      fill="url(#paint6_radial_958_170)"/>
            </g>
            <path opacity="0.286"
                  d="M37.3702 30.9481C37.3702 31.1469 36.8732 31.296 36.2271 31.296C35.6058 31.296 35.084 31.1469 35.084 30.9481C35.084 30.7493 35.581 30.6002 36.2271 30.6002C36.8732 30.6002 37.3702 30.7493 37.3702 30.9481Z"
                  fill="url(#paint7_linear_958_170)"/>
            <g opacity="0.621">
                <path d="M37.768 31.3457C37.768 31.7681 37.0722 32.0912 36.2522 32.0912C35.4073 32.0912 34.7363 31.7433 34.7363 31.3457C34.7363 30.9232 35.4321 30.6002 36.2522 30.6002C37.0971 30.6002 37.768 30.9481 37.768 31.3457Z"
                      fill="url(#paint8_linear_958_170)"/>
            </g>
            <path d="M34.166 31.7681C34.7127 32.2651 37.6947 32.5136 38.1917 31.619C37.2226 32.3148 35.0855 32.0663 34.166 31.7681Z"
                  fill="url(#paint9_radial_958_170)"/>
            <path opacity="0.286"
                  d="M34.1654 33.433C34.2648 33.6567 34.2151 33.9052 34.0163 34.0046C33.8175 34.104 33.569 34.0046 33.4696 33.8058C33.3702 33.5821 33.4199 33.3336 33.6187 33.2342C33.8175 33.11 34.066 33.2094 34.1654 33.433Z"
                  fill="url(#paint10_linear_958_170)"/>
            <g opacity="0.621">
                <path d="M34.3891 33.5324C34.563 33.8555 34.4636 34.2282 34.1654 34.3773C33.8672 34.5264 33.5193 34.3773 33.3454 34.0543C33.1714 33.7312 33.2708 33.3585 33.569 33.2094C33.8672 33.0603 34.2151 33.2094 34.3891 33.5324Z"
                      fill="url(#paint11_linear_958_170)"/>
            </g>
            <path d="M33.4199 34.4271C33.8424 34.775 35.4825 34.7998 34.8612 33.8307C35.0352 34.601 33.9169 34.5265 33.4199 34.4271Z"
                  fill="url(#paint12_radial_958_170)"/>
            <path d="M13.3164 29.3328C13.3164 29.2582 18.8828 31.0226 19.8271 31.9917C19.0568 31.2214 15.0808 29.4819 14.4844 29.457C13.888 29.4322 13.391 29.3825 13.3164 29.3328Z"
                  fill="url(#paint13_radial_958_170)"/>
            <path opacity="0.286"
                  d="M17.4869 33.1401C17.5404 33.27 17.1491 33.4698 16.5881 33.6029C16.0271 33.7359 15.5554 33.7409 15.5019 33.611C15.4484 33.4811 15.8397 33.2813 16.4007 33.1482C16.9617 33.0152 17.4333 33.0102 17.4869 33.1401Z"
                  fill="url(#paint14_linear_958_170)"/>
            <g opacity="0.621">
                <path d="M17.8925 33.3118C18.0188 33.5814 17.5259 33.9416 16.8312 34.1232C16.1366 34.3048 15.4432 34.2369 15.3244 33.9832C15.1981 33.7136 15.691 33.3534 16.3856 33.1718C17.0803 32.9902 17.7663 33.0422 17.8925 33.3118Z"
                      fill="url(#paint15_linear_958_170)"/>
            </g>
            <g opacity="0.616">
                <path d="M15.1055 34.0543C15.1055 34.0543 15.4037 34.8495 16.2237 34.8992C17.0686 34.9489 18.0129 33.9052 18.0875 33.5325C17.9384 33.8555 17.1432 34.8247 16.1243 34.7998C15.5279 34.7998 15.1055 34.0543 15.1055 34.0543Z"
                      fill="url(#paint16_radial_958_170)"/>
            </g>
            <path d="M23.8523 9.25403C23.0074 9.25403 22.1873 9.55223 21.6158 10.1486L10.5078 21.5299C9.48897 22.5488 9.24047 23.2197 9.31502 23.5925C9.33987 23.7913 9.43927 23.9404 9.63807 24.1143C9.83687 24.2883 10.1351 24.4622 10.483 24.6113C11.2036 24.9095 12.1479 25.158 13.0922 25.4065C14.0365 25.655 14.956 25.9284 15.6518 26.3757C15.7512 26.4502 15.8506 26.5248 15.9251 26.649C15.9997 26.7733 16.0245 26.9224 15.9997 27.0715C15.95 27.3448 15.776 27.4939 15.6021 27.6182C15.2542 27.8915 14.782 28.0903 14.3099 28.314C13.8377 28.5376 13.3656 28.7861 13.1171 28.9601C12.9928 29.0595 12.9431 29.134 12.968 29.134C12.968 29.134 12.9431 29.0595 12.9928 29.1092C13.1419 29.2583 13.6141 29.5316 14.2105 29.7553C14.8069 29.9789 15.5275 30.2274 16.2482 30.4511C16.9688 30.6996 17.7143 30.9232 18.3356 31.1717C18.9568 31.4202 19.4787 31.6439 19.8017 31.9918C19.9757 32.1657 20.0999 32.3894 20.1248 32.5882C20.1496 32.8118 20.0999 33.0106 20.0005 33.1846C19.8266 33.5325 19.5532 33.8058 19.3296 34.0543C19.0811 34.3028 18.8574 34.5513 18.7829 34.7253C18.7332 34.7998 18.7332 34.8495 18.7332 34.8992C18.7332 34.9241 18.7332 34.9738 18.8077 35.0483C19.1308 35.3962 19.8266 35.4459 20.6218 35.6199C21.0194 35.7193 21.4418 35.8435 21.7897 36.1666C22.1376 36.4896 22.411 36.9369 22.5352 37.583C22.5849 37.8564 22.734 37.9806 23.0571 38.08C23.405 38.1794 23.9268 38.2043 24.4984 38.1297C25.6415 37.9558 27.0082 37.4091 27.7786 36.763L27.8283 36.7133C27.7786 36.6636 27.6543 36.589 27.4555 36.4896C27.207 36.3654 26.9337 36.266 26.71 35.9926C26.6106 35.8435 26.5361 35.6447 26.5609 35.4211C26.5858 35.1974 26.71 35.0235 26.8591 34.8744C28.1513 33.5822 29.3938 33.2591 30.3381 33.0106C30.8103 32.8864 31.2079 32.7621 31.5061 32.5882C31.8043 32.3894 32.0528 32.1409 32.2516 31.6439C32.2764 31.5942 32.2764 31.5693 32.2516 31.5196C32.2267 31.4451 32.1522 31.3457 32.0279 31.2463C31.7794 31.0226 31.357 30.799 30.9345 30.5505C30.5121 30.3268 30.1145 30.1032 29.8163 29.8298C29.6672 29.6807 29.5181 29.5316 29.4932 29.2583C29.4684 28.9849 29.6423 28.7613 29.8411 28.6122C30.5866 28.0903 31.7049 27.6927 32.9225 27.2703C34.1402 26.8478 35.4572 26.4005 36.5009 25.9035C37.5695 25.4065 38.3398 24.835 38.5883 24.2634C38.7126 23.9652 38.7374 23.6919 38.6132 23.2943C38.4889 22.8967 38.1907 22.4494 37.644 21.9275L26.1633 10.1735C25.5172 9.55223 24.6723 9.25403 23.8523 9.25403ZM36.2276 30.8487C35.5069 30.8735 34.8608 31.1966 34.5875 31.7184C34.662 31.7433 34.7366 31.793 34.8608 31.8178C35.2336 31.8924 35.7554 31.9669 36.2524 31.9669C36.7494 31.9669 37.2713 31.9421 37.5943 31.8427C37.7186 31.793 37.7931 31.7681 37.8428 31.7433C37.7683 31.4451 37.6192 31.2463 37.321 31.0972C37.0476 30.8984 36.6252 30.8238 36.2276 30.8487ZM17.2173 33.284C16.6458 33.2343 15.95 33.4579 15.6021 33.7561C15.4281 33.9052 15.3536 34.0295 15.3536 34.104C15.3536 34.1786 15.3784 34.3028 15.6021 34.5016C15.9748 34.8247 16.3724 34.775 16.8446 34.5265C17.2422 34.3028 17.5901 33.9052 17.8137 33.4828C17.6646 33.3834 17.4658 33.3088 17.2173 33.284ZM33.668 33.4579C33.5438 33.607 33.4941 33.7561 33.4692 33.8555C33.4692 34.0046 33.4941 34.104 33.5935 34.2034C33.7923 34.4022 34.2147 34.4768 34.662 34.2283C34.662 34.1786 34.6372 34.104 34.5626 34.0046C34.4632 33.8058 34.1402 33.5822 33.668 33.4579Z"
                  stroke="url(#paint17_radial_958_170)" stroke-width="0.0454755"/>
            <g opacity="0.325">
                <path d="M17.7385 27.0715C17.0676 27.2703 14.9056 28.0903 15.2038 28.7116C15.502 29.308 20.5466 29.5565 21.3169 31.3457C21.6648 32.116 20.5466 32.7124 20.8199 33.5076C21.0436 34.1289 22.7085 35.6696 23.7771 36.4151C24.622 36.9866 25.7154 35.9429 25.2681 35.098C24.5723 33.7313 27.7282 32.0663 29.1447 31.296C29.9647 30.8487 27.43 28.6619 27.43 28.6619L17.7385 27.0715Z"
                      fill="url(#paint18_linear_958_170)"/>
            </g>
            <path d="M17.9884 27.6927C18.5848 28.14 19.7776 27.8667 20.4983 28.1897C22.2129 28.9601 24.3252 29.8298 23.9276 28.2891L23.5051 28.6619V27.9661L22.4863 28.2146C22.4863 28.2146 21.6911 27.5933 21.3432 27.3697C21.2686 27.32 20.871 27.7176 20.871 27.7176L20.7965 27.2951C20.2995 27.2454 19.8025 27.2206 19.3552 27.2206C18.3115 27.2454 17.6157 27.3945 17.9884 27.6927Z"
                  fill="url(#paint19_linear_958_170)"/>
            <g opacity="0.478">
                <path d="M29.2447 29.0843C29.0211 29.9292 32.1025 31.0971 31.854 31.6935C31.357 32.9857 28.5738 32.116 26.4367 34.8246C26.1385 35.2222 26.8591 36.6138 26.7597 36.4399C26.6603 36.2659 25.9148 35.1228 26.1136 34.5513C26.71 32.7869 32.5746 32.116 31.5061 31.2711C30.8848 30.7989 28.6732 29.457 29.2447 29.0843Z"
                      fill="url(#paint20_radial_958_170)"/>
            </g>
            <path opacity="0.586"
                  d="M36.1784 30.8487C36.1784 30.9232 36.0293 30.9978 35.8305 30.9978C35.6317 30.9978 35.4826 30.9232 35.4826 30.8487C35.4826 30.7741 35.6317 30.6996 35.8305 30.6996C36.0293 30.6996 36.1784 30.7741 36.1784 30.8487ZM33.9171 33.4331C33.9171 33.5076 33.8177 33.5822 33.6934 33.5822C33.5692 33.5822 33.4698 33.5076 33.4698 33.4331C33.4698 33.3585 33.5692 33.284 33.6934 33.284C33.8177 33.284 33.9171 33.3585 33.9171 33.4331ZM16.8451 33.3088C16.8451 33.3834 16.6712 33.4579 16.4724 33.4579C16.2736 33.4579 16.0996 33.3834 16.0996 33.3088C16.0996 33.2343 16.2736 33.1597 16.4724 33.1597C16.6712 33.1597 16.8451 33.2343 16.8451 33.3088Z"
                  fill="white"/>
            <path opacity="0.251" d="M16.6204 27.146C14.6821 28.3388 11.7001 28.7612 14.9803 29.5564C14.5827 28.6867 15.8252 28.7861 16.6204 27.146Z"
                  fill="url(#paint21_linear_958_170)"/>
            <g opacity="0.363">
                <path d="M23.4797 38.0055C23.4797 38.0055 26.4617 37.7321 27.1326 36.8624C27.5302 36.3654 25.5422 35.769 25.9647 35.272C27.5799 33.4331 28.9467 33.5076 30.8353 32.7124C32.7239 31.9421 32.0281 31.5693 31.4068 31.2214C30.3631 30.6499 28.0272 30.0286 28.7976 28.637C29.5679 27.2454 36.352 25.3071 36.352 25.3071C38.4145 24.6113 38.1412 23.344 37.1472 22.2754L31.1086 16.2866C31.1086 16.2866 31.4068 22.0021 30.1892 24.4622C28.6733 27.4691 20.6468 30.8487 24.0015 31.2214C25.1943 31.3457 25.7659 31.7681 26.238 32.6627C27.232 34.5513 23.4797 38.0055 23.4797 38.0055Z"
                      fill="url(#paint22_linear_958_170)"/>
            </g>
        </g>
    </g>
    <defs>
        <linearGradient id="paint0_linear_958_170" x1="33.6005" y1="17.3854" x2="27.7772" y2="22.6508" gradientUnits="userSpaceOnUse">
            <stop stop-color="#C0CDF9"/>
            <stop offset="1" stop-color="#07092D" stop-opacity="0.288"/>
        </linearGradient>
        <linearGradient id="paint1_linear_958_170" x1="16.2624" y1="15.2863" x2="23.0257" y2="22.0496" gradientUnits="userSpaceOnUse">
            <stop stop-color="white"/>
            <stop offset="1" stop-color="white" stop-opacity="0"/>
        </linearGradient>
        <linearGradient id="paint2_linear_958_170" x1="20.7792" y1="14.0409" x2="28.822" y2="22.0837" gradientUnits="userSpaceOnUse">
            <stop stop-color="white"/>
            <stop offset="1" stop-color="white" stop-opacity="0"/>
        </linearGradient>
        <radialGradient id="paint3_radial_958_170" cx="0" cy="0" r="1" gradientUnits="userSpaceOnUse"
                        gradientTransform="translate(18.8853 37.2775) scale(6.82538 4.56401)">
            <stop stop-color="white"/>
            <stop offset="1" stop-color="white" stop-opacity="0"/>
        </radialGradient>
        <radialGradient id="paint4_radial_958_170" cx="0" cy="0" r="1" gradientUnits="userSpaceOnUse"
                        gradientTransform="translate(22.5132 37.4411) scale(8.70711 5.82675)">
            <stop stop-color="white"/>
            <stop offset="1" stop-color="white" stop-opacity="0"/>
        </radialGradient>
        <radialGradient id="paint5_radial_958_170" cx="0" cy="0" r="1" gradientUnits="userSpaceOnUse"
                        gradientTransform="translate(33.6189 26.8339) scale(4.85905 2.06002)">
            <stop stop-color="white"/>
            <stop offset="1" stop-color="white" stop-opacity="0"/>
        </radialGradient>
        <radialGradient id="paint6_radial_958_170" cx="0" cy="0" r="1" gradientUnits="userSpaceOnUse"
                        gradientTransform="translate(34.6538 27.4057) scale(4.85905 2.06002)">
            <stop stop-color="white"/>
            <stop offset="1" stop-color="white" stop-opacity="0"/>
        </radialGradient>
        <linearGradient id="paint7_linear_958_170" x1="36.2391" y1="30.4123" x2="36.2569" y2="31.3078" gradientUnits="userSpaceOnUse">
            <stop stop-color="white"/>
            <stop offset="1" stop-color="white" stop-opacity="0"/>
        </linearGradient>
        <linearGradient id="paint8_linear_958_170" x1="36.2516" y1="30.2936" x2="36.2516" y2="31.6547" gradientUnits="userSpaceOnUse">
            <stop stop-color="white"/>
            <stop offset="1" stop-color="white" stop-opacity="0"/>
        </linearGradient>
        <radialGradient id="paint9_radial_958_170" cx="0" cy="0" r="1" gradientUnits="userSpaceOnUse"
                        gradientTransform="translate(36.185 31.9254) scale(1.99949 0.296502)">
            <stop stop-color="white"/>
            <stop offset="1" stop-color="white" stop-opacity="0"/>
        </radialGradient>
        <linearGradient id="paint10_linear_958_170" x1="33.5745" y1="33.1818" x2="34.0153" y2="33.9606" gradientUnits="userSpaceOnUse">
            <stop stop-color="white"/>
            <stop offset="1" stop-color="white" stop-opacity="0"/>
        </linearGradient>
        <linearGradient id="paint11_linear_958_170" x1="33.406" y1="32.8994" x2="34.0234" y2="34.1121" gradientUnits="userSpaceOnUse">
            <stop stop-color="white"/>
            <stop offset="1" stop-color="white" stop-opacity="0"/>
        </linearGradient>
        <radialGradient id="paint12_radial_958_170" cx="0" cy="0" r="1" gradientUnits="userSpaceOnUse"
                        gradientTransform="translate(34.3104 34.667) rotate(-26.9028) scale(0.865312 0.294104)">
            <stop stop-color="white"/>
            <stop offset="1" stop-color="white" stop-opacity="0"/>
        </radialGradient>
        <radialGradient id="paint13_radial_958_170" cx="0" cy="0" r="1" gradientUnits="userSpaceOnUse"
                        gradientTransform="translate(16.4377 30.2333) scale(3.22752 1.3131)">
            <stop stop-color="white" stop-opacity="0.33"/>
            <stop offset="1" stop-color="white" stop-opacity="0"/>
        </radialGradient>
        <linearGradient id="paint14_linear_958_170" x1="16.3367" y1="33.0229" x2="16.372" y2="33.4695" gradientUnits="userSpaceOnUse">
            <stop stop-color="white"/>
            <stop offset="1" stop-color="white" stop-opacity="0"/>
        </linearGradient>
        <linearGradient id="paint15_linear_958_170" x1="16.2923" y1="32.9765" x2="16.2904" y2="33.6246" gradientUnits="userSpaceOnUse">
            <stop stop-color="white"/>
            <stop offset="1" stop-color="white" stop-opacity="0"/>
        </linearGradient>
        <radialGradient id="paint16_radial_958_170" cx="0" cy="0" r="1" gradientUnits="userSpaceOnUse"
                        gradientTransform="translate(16.4714 34.8858) rotate(-15.4957) scale(1.82846 0.683044)">
            <stop stop-color="white"/>
            <stop offset="1" stop-color="white" stop-opacity="0"/>
        </radialGradient>
        <radialGradient id="paint17_radial_958_170" cx="0" cy="0" r="1" gradientUnits="userSpaceOnUse"
                        gradientTransform="translate(25.2011 12.3997) scale(25.2813 24.8826)">
            <stop stop-color="white"/>
            <stop offset="1" stop-color="white" stop-opacity="0"/>
        </radialGradient>
        <linearGradient id="paint18_linear_958_170" x1="18.1009" y1="30.5935" x2="25.6881" y2="32.5996" gradientUnits="userSpaceOnUse">
            <stop stop-color="white"/>
            <stop offset="1" stop-color="white" stop-opacity="0"/>
        </linearGradient>
        <linearGradient id="paint19_linear_958_170" x1="21.4201" y1="27.0285" x2="20.5673" y2="28.9827" gradientUnits="userSpaceOnUse">
            <stop stop-color="#EEEEEC"/>
            <stop offset="1" stop-color="#EEEEEC" stop-opacity="0"/>
        </linearGradient>
        <radialGradient id="paint20_radial_958_170" cx="0" cy="0" r="1" gradientUnits="userSpaceOnUse"
                        gradientTransform="translate(29.0411 32.6793) scale(3.97515 5.05377)">
            <stop stop-color="white"/>
            <stop offset="1" stop-color="white" stop-opacity="0"/>
        </radialGradient>
        <linearGradient id="paint21_linear_958_170" x1="14.8735" y1="27.9074" x2="16.0685" y2="28.8568" gradientUnits="userSpaceOnUse">
            <stop stop-color="white"/>
            <stop offset="1" stop-color="white" stop-opacity="0"/>
        </linearGradient>
        <linearGradient id="paint22_linear_958_170" x1="31.2557" y1="32.2385" x2="27.709" y2="22.6891" gradientUnits="userSpaceOnUse">
            <stop stop-color="#729FCF"/>
            <stop offset="1" stop-color="#729FCF" stop-opacity="0"/>
        </linearGradient>
        <clipPath id="clip0_958_170">
            <rect width="48" height="48" fill="white"/>
        </clipPath>
        <clipPath id="clip1_958_170">
            <rect width="32" height="32" fill="white" transform="translate(8 8)"/>
        </clipPath>
    </defs>
</svg>
