<svg width="48" height="48" viewBox="0 0 48 48" fill="none" xmlns="http://www.w3.org/2000/svg">
    <g clip-path="url(#clip0_958_25)">
        <path d="M36.75 0H11.25C5.0368 0 0 5.0368 0 11.25V36.75C0 42.9632 5.0368 48 11.25 48H36.75C42.9632 48 48 42.9632 48 36.75V11.25C48 5.0368 42.9632 0 36.75 0Z"
              fill="#242938"/>
        <g clip-path="url(#clip1_958_25)">
            <path d="M12.7504 29.1594L8.33789 25.675L10.9348 20.8657L14.8379 22.1718L12.7504 29.1594Z" fill="url(#paint0_linear_958_25)"/>
            <path d="M38 15.9969L37.4594 33.3719L25.903 38L19.6094 33.9375L38 15.9969Z" fill="#087CFA"/>
            <path d="M38 15.9969L32.2813 21.575L24.9375 12.5656L28.5626 8.49066L38 15.9969Z" fill="url(#paint1_linear_958_25)"/>
            <path d="M19.6094 33.9375L10.4187 37.2594L12.3438 30.5188L14.8375 22.1718L8 19.8843L12.3438 8L22.1625 9.15934L32.2812 21.575L19.6094 33.9375Z"
                  fill="url(#paint2_linear_958_25)"/>
            <path d="M13.7598 13.625H32.5098V32.375H13.7598V13.625Z" fill="black"/>
            <path d="M16.0977 28.8312H23.1289V30.0031H16.0977V28.8312ZM19.6071 17.2563V15.975H16.1102V17.2563H17.0914V21.6813H16.1102V22.9625H19.6071V21.6813H18.6289V17.2563H19.6071ZM22.9384 23.05L22.9602 23.0625C22.4836 23.0779 22.0112 22.9703 21.5884 22.75C21.241 22.563 20.9315 22.3129 20.6758 22.0125L21.6414 20.9343C21.8178 21.1334 22.022 21.3061 22.2477 21.4469C22.4493 21.5719 22.6824 21.6369 22.9196 21.6344C23.0465 21.6405 23.1732 21.6194 23.2912 21.5725C23.4092 21.5256 23.5159 21.454 23.604 21.3625C23.7922 21.108 23.8811 20.7935 23.8539 20.4781V15.9688H25.4164V20.5469C25.4234 20.9177 25.3652 21.2868 25.2446 21.6375C25.1419 21.929 24.9738 22.1931 24.7534 22.4098C24.533 22.6264 24.2659 22.7898 23.9727 22.8875C23.6397 23.0002 23.2899 23.0552 22.9384 23.05Z"
                  fill="white"/>
        </g>
    </g>
    <defs>
        <linearGradient id="paint0_linear_958_25" x1="249.073" y1="443.986" x2="1167.68" y2="397.267" gradientUnits="userSpaceOnUse">
            <stop offset="0.09" stop-color="#FC801D"/>
            <stop offset="0.23" stop-color="#B07F61"/>
            <stop offset="0.41" stop-color="#577DB3"/>
            <stop offset="0.53" stop-color="#1E7CE6"/>
            <stop offset="0.59" stop-color="#087CFA"/>
        </linearGradient>
        <linearGradient id="paint1_linear_958_25" x1="985.779" y1="1510.05" x2="488.147" y2="23.0551" gradientUnits="userSpaceOnUse">
            <stop stop-color="#FE2857"/>
            <stop offset="0.08" stop-color="#CB3979"/>
            <stop offset="0.16" stop-color="#9E4997"/>
            <stop offset="0.25" stop-color="#7557B2"/>
            <stop offset="0.34" stop-color="#5362C8"/>
            <stop offset="0.44" stop-color="#386CDA"/>
            <stop offset="0.54" stop-color="#2373E8"/>
            <stop offset="0.66" stop-color="#1478F2"/>
            <stop offset="0.79" stop-color="#0B7BF8"/>
            <stop offset="1" stop-color="#087CFA"/>
        </linearGradient>
        <linearGradient id="paint2_linear_958_25" x1="701.254" y1="698.931" x2="2422.3" y2="3545.76" gradientUnits="userSpaceOnUse">
            <stop stop-color="#FE2857"/>
            <stop offset="0.08" stop-color="#FE295F"/>
            <stop offset="0.21" stop-color="#FF2D76"/>
            <stop offset="0.3" stop-color="#FF318C"/>
            <stop offset="0.38" stop-color="#EA3896"/>
            <stop offset="0.55" stop-color="#B248AE"/>
            <stop offset="0.79" stop-color="#5A63D6"/>
            <stop offset="1" stop-color="#087CFA"/>
        </linearGradient>
        <clipPath id="clip0_958_25">
            <rect width="48" height="48" fill="white"/>
        </clipPath>
        <clipPath id="clip1_958_25">
            <rect width="30" height="30" fill="white" transform="translate(8 8)"/>
        </clipPath>
    </defs>
</svg>
