<svg width="64" height="64" viewBox="0 0 64 64" fill="none" xmlns="http://www.w3.org/2000/svg">
<rect width="64" height="64" rx="16" fill="black"/>
<path d="M10.9787 29L11.9134 26.3054H15.8906L16.8203 29H18.451L14.7869 18.8182H13.0121L9.34801 29H10.9787ZM12.3608 25.0128L13.8622 20.6676H13.9418L15.4432 25.0128H12.3608ZM21.2885 18.8182H19.802V29H21.2885V18.8182ZM23.2884 29H24.7749V21.3636H23.2884V29ZM24.0391 20.1854C24.5511 20.1854 24.9787 19.7876 24.9787 19.3004C24.9787 18.8132 24.5511 18.4105 24.0391 18.4105C23.522 18.4105 23.0994 18.8132 23.0994 19.3004C23.0994 19.7876 23.522 20.1854 24.0391 20.1854ZM10.9787 46L11.9134 43.3054H15.8906L16.8203 46H18.451L14.7869 35.8182H13.0121L9.34801 46H10.9787ZM12.3608 42.0128L13.8622 37.6676H13.9418L15.4432 42.0128H12.3608ZM21.2885 35.8182H19.802V46H21.2885V35.8182ZM23.4077 46H24.8594V44.8118H24.9837C25.2521 45.299 25.799 46.1491 27.1911 46.1491C29.0405 46.1491 30.3828 44.6676 30.3828 42.1967C30.3828 39.7209 29.0206 38.2642 27.1761 38.2642C25.7592 38.2642 25.2472 39.1293 24.9837 39.6016H24.8942V35.8182H23.4077V46ZM24.8643 42.1818C24.8643 40.5859 25.5604 39.527 26.858 39.527C28.2053 39.527 28.8814 40.6655 28.8814 42.1818C28.8814 43.7131 28.1854 44.8814 26.858 44.8814C25.5803 44.8814 24.8643 43.7876 24.8643 42.1818ZM34.2743 46.169C35.5371 46.169 36.248 45.5277 36.5314 44.956H36.5911V46H38.0428V40.929C38.0428 38.7067 36.2928 38.2642 35.0797 38.2642C33.6976 38.2642 32.4249 38.821 31.9277 40.2131L33.3248 40.5312C33.5435 39.9893 34.1003 39.4673 35.0996 39.4673C36.0591 39.4673 36.5513 39.9695 36.5513 40.8345V40.8693C36.5513 41.4112 35.9945 41.4013 34.6223 41.5604C33.1756 41.7294 31.6941 42.1072 31.6941 43.8423C31.6941 45.3438 32.8226 46.169 34.2743 46.169ZM34.5975 44.9759C33.7573 44.9759 33.1507 44.598 33.1507 43.8622C33.1507 43.0668 33.8567 42.7834 34.7168 42.669C35.199 42.6044 36.3425 42.4751 36.5563 42.2614V43.2457C36.5563 44.1506 35.8354 44.9759 34.5975 44.9759ZM42.245 46.169C43.5078 46.169 44.2188 45.5277 44.5021 44.956H44.5618V46H46.0135V40.929C46.0135 38.7067 44.2635 38.2642 43.0504 38.2642C41.6683 38.2642 40.3956 38.821 39.8984 40.2131L41.2955 40.5312C41.5142 39.9893 42.071 39.4673 43.0703 39.4673C44.0298 39.4673 44.522 39.9695 44.522 40.8345V40.8693C44.522 41.4112 43.9652 41.4013 42.593 41.5604C41.1463 41.7294 39.6648 42.1072 39.6648 43.8423C39.6648 45.3438 40.7933 46.169 42.245 46.169ZM42.5682 44.9759C41.728 44.9759 41.1214 44.598 41.1214 43.8622C41.1214 43.0668 41.8274 42.7834 42.6875 42.669C43.1697 42.6044 44.3132 42.4751 44.527 42.2614V43.2457C44.527 44.1506 43.8061 44.9759 42.5682 44.9759ZM49.4799 35.8182H47.9934V46H49.4799V35.8182ZM51.4798 46H52.9663V38.3636H51.4798V46ZM52.2305 37.1854C52.7425 37.1854 53.1701 36.7876 53.1701 36.3004C53.1701 35.8132 52.7425 35.4105 52.2305 35.4105C51.7134 35.4105 51.2908 35.8132 51.2908 36.3004C51.2908 36.7876 51.7134 37.1854 52.2305 37.1854Z" fill="white"/>
</svg>
