<svg xmlns="http://www.w3.org/2000/svg" version="1.1" width="512" height="512">
    <svg width="512" height="512" viewBox="0 0 512 512" fill="none" xmlns="http://www.w3.org/2000/svg">
        <rect x="8" y="8" width="496" height="496" rx="56" fill="white"></rect>
        <path d="M97.376 290.512C95.264 290.512 93.44 289.808 91.904 288.4C90.304 286.992 89.504 284.88 89.504 282.064C89.504 279.824 90.016 277.392 91.04 274.768C92.064 272.144 93.472 269.552 95.264 266.992C97.056 264.432 99.104 262.128 101.408 260.08C103.712 257.968 106.176 256.272 108.8 254.992C111.424 253.712 114.048 253.072 116.672 253.072C119.424 253.072 121.76 253.776 123.68 255.184C125.6 256.592 126.56 258.448 126.56 260.752C126.56 262.48 125.952 263.728 124.736 264.496C123.52 265.264 122.08 265.488 120.416 265.168C120.544 264.592 120.64 264.016 120.704 263.44C120.832 262.864 120.896 262.256 120.896 261.616C120.896 260.336 120.64 259.184 120.128 258.16C119.616 257.136 118.528 256.624 116.864 256.624C115.072 256.624 113.248 257.232 111.392 258.448C109.536 259.664 107.744 261.264 106.016 263.248C104.352 265.168 102.848 267.312 101.504 269.68C100.16 271.984 99.104 274.256 98.336 276.496C97.568 278.736 97.184 280.752 97.184 282.544C97.184 284.592 97.92 285.616 99.392 285.616C100.864 285.616 102.496 284.912 104.288 283.504C106.08 282.032 107.872 280.208 109.664 278.032C111.52 275.856 113.28 273.648 114.944 271.408C116.608 269.104 118.048 267.152 119.264 265.552C119.456 265.232 119.712 265.072 120.032 265.072C120.288 265.136 120.768 265.296 121.472 265.552C122.24 265.744 122.944 266.064 123.584 266.512C124.224 266.96 124.544 267.536 124.544 268.24C124.544 268.88 124.256 269.712 123.68 270.736C123.168 271.696 122.528 272.784 121.76 274C121.056 275.152 120.416 276.336 119.84 277.552C119.328 278.704 119.072 279.824 119.072 280.912C119.072 281.744 119.296 282.544 119.744 283.312C120.192 284.016 120.928 284.368 121.952 284.368C123.488 284.368 125.632 283.248 128.384 281.008C131.2 278.704 134.048 274.832 136.928 269.392L138.752 271.216C137.216 274.672 135.36 277.744 133.184 280.432C131.072 283.056 128.832 285.104 126.464 286.576C124.096 288.112 121.696 288.88 119.264 288.88C116.64 288.88 114.688 288.048 113.408 286.384C112.128 284.72 111.424 282.928 111.296 281.008C111.296 280.88 111.296 280.784 111.296 280.72C111.296 280.656 111.296 280.592 111.296 280.528C108.736 283.6 106.368 286.032 104.192 287.824C102.08 289.616 99.808 290.512 97.376 290.512ZM142.912 288.88C139.904 288.88 137.792 287.888 136.576 285.904C135.424 283.856 134.848 281.456 134.848 278.704C134.848 275.568 135.424 271.888 136.576 267.664C137.728 263.44 139.232 259.024 141.088 254.416C143.008 249.744 145.088 245.2 147.328 240.784C149.632 236.304 151.936 232.272 154.24 228.688C156.544 225.104 158.656 222.256 160.576 220.144C162.56 217.968 164.16 216.88 165.376 216.88C166.208 216.88 166.912 217.328 167.488 218.224C168.064 219.056 168.512 220.08 168.832 221.296C169.216 222.448 169.408 223.536 169.408 224.56C169.408 226.288 168.96 228.56 168.064 231.376C167.232 234.128 166.016 237.168 164.416 240.496C162.88 243.824 161.024 247.248 158.848 250.768C156.736 254.224 154.368 257.52 151.744 260.656C149.184 263.792 146.432 266.512 143.488 268.816C143.232 270.416 142.976 272.016 142.72 273.616C142.528 275.152 142.432 276.56 142.432 277.84C142.432 280.144 142.816 281.84 143.584 282.928C144.352 283.952 145.344 284.464 146.56 284.464C148.16 284.464 149.792 283.728 151.456 282.256C153.184 280.72 154.816 278.8 156.352 276.496C157.952 274.128 159.328 271.696 160.48 269.2L162.784 270.448C160.032 276.144 156.96 280.656 153.568 283.984C150.176 287.248 146.624 288.88 142.912 288.88ZM145.216 262.864C147.392 260.496 149.44 257.936 151.36 255.184C153.344 252.368 155.136 249.52 156.736 246.64C158.4 243.76 159.84 240.976 161.056 238.288C162.272 235.6 163.2 233.2 163.84 231.088C164.544 228.912 164.928 227.184 164.992 225.904C164.992 225.84 164.992 225.808 164.992 225.808C164.992 225.744 164.992 225.68 164.992 225.616C164.48 225.616 163.648 226.352 162.496 227.824C161.408 229.232 160.096 231.184 158.56 233.68C157.024 236.176 155.424 239.024 153.76 242.224C152.16 245.424 150.592 248.816 149.056 252.4C147.584 255.92 146.304 259.408 145.216 262.864ZM165.868 288.88C163.052 288.88 160.94 288.048 159.532 286.384C158.123 284.72 157.419 282.704 157.419 280.336C157.419 278.864 157.675 277.008 158.188 274.768C158.7 272.528 159.404 270.192 160.3 267.76C161.26 265.264 162.348 262.928 163.564 260.752C164.78 258.576 166.092 256.816 167.5 255.472C168.908 254.064 170.316 253.36 171.724 253.36C172.492 253.36 173.164 253.616 173.74 254.128C174.316 254.576 174.604 255.248 174.604 256.144C174.604 256.976 174.092 258.224 173.068 259.888C172.108 261.552 170.956 263.472 169.612 265.648C168.332 267.824 167.18 270.096 166.156 272.464C165.196 274.768 164.716 276.976 164.716 279.088C164.716 281.136 165.068 282.512 165.772 283.216C166.54 283.856 167.628 284.176 169.036 284.176C171.212 284.176 173.58 283.088 176.14 280.912C178.7 278.736 181.356 274.928 184.108 269.488L185.548 271.024C183.308 276.656 180.46 281.04 177.004 284.176C173.548 287.312 169.836 288.88 165.868 288.88ZM177.196 245.584C175.98 245.584 174.86 245.296 173.836 244.72C172.876 244.08 172.396 243.12 172.396 241.84C172.396 240.304 173.228 238.992 174.892 237.904C176.556 236.816 178.284 236.272 180.076 236.272C181.228 236.272 182.188 236.528 182.956 237.04C183.788 237.552 184.204 238.48 184.204 239.824C184.204 241.168 183.468 242.48 181.996 243.76C180.524 244.976 178.924 245.584 177.196 245.584ZM187.001 290.512C184.889 290.512 183.065 289.808 181.529 288.4C179.929 286.992 179.129 284.88 179.129 282.064C179.129 279.824 179.641 277.392 180.665 274.768C181.689 272.144 183.097 269.552 184.889 266.992C186.681 264.432 188.729 262.128 191.033 260.08C193.337 257.968 195.801 256.272 198.425 254.992C201.049 253.712 203.673 253.072 206.297 253.072C209.049 253.072 211.385 253.776 213.305 255.184C215.225 256.592 216.185 258.448 216.185 260.752C216.185 262.48 215.577 263.728 214.361 264.496C213.145 265.264 211.705 265.488 210.041 265.168C210.169 264.592 210.265 264.016 210.329 263.44C210.457 262.864 210.521 262.256 210.521 261.616C210.521 260.336 210.265 259.184 209.753 258.16C209.241 257.136 208.153 256.624 206.489 256.624C204.697 256.624 202.873 257.232 201.017 258.448C199.161 259.664 197.369 261.264 195.641 263.248C193.977 265.168 192.473 267.312 191.129 269.68C189.785 271.984 188.729 274.256 187.961 276.496C187.193 278.736 186.809 280.752 186.809 282.544C186.809 284.592 187.545 285.616 189.017 285.616C190.489 285.616 192.121 284.912 193.913 283.504C195.705 282.032 197.497 280.208 199.289 278.032C201.145 275.856 202.905 273.648 204.569 271.408C206.233 269.104 207.673 267.152 208.889 265.552C209.081 265.232 209.337 265.072 209.657 265.072C209.913 265.136 210.393 265.296 211.097 265.552C211.865 265.744 212.569 266.064 213.209 266.512C213.849 266.96 214.169 267.536 214.169 268.24C214.169 268.88 213.881 269.712 213.305 270.736C212.793 271.696 212.153 272.784 211.385 274C210.681 275.152 210.041 276.336 209.465 277.552C208.953 278.704 208.697 279.824 208.697 280.912C208.697 281.744 208.921 282.544 209.369 283.312C209.817 284.016 210.553 284.368 211.577 284.368C213.113 284.368 215.257 283.248 218.009 281.008C220.825 278.704 223.673 274.832 226.553 269.392L228.377 271.216C226.841 274.672 224.985 277.744 222.809 280.432C220.697 283.056 218.457 285.104 216.089 286.576C213.721 288.112 211.321 288.88 208.889 288.88C206.265 288.88 204.313 288.048 203.033 286.384C201.753 284.72 201.049 282.928 200.921 281.008C200.921 280.88 200.921 280.784 200.921 280.72C200.921 280.656 200.921 280.592 200.921 280.528C198.361 283.6 195.993 286.032 193.817 287.824C191.705 289.616 189.433 290.512 187.001 290.512ZM232.537 288.88C229.529 288.88 227.417 287.888 226.201 285.904C225.049 283.856 224.473 281.456 224.473 278.704C224.473 275.568 225.049 271.888 226.201 267.664C227.353 263.44 228.857 259.024 230.713 254.416C232.633 249.744 234.713 245.2 236.953 240.784C239.257 236.304 241.561 232.272 243.865 228.688C246.169 225.104 248.281 222.256 250.201 220.144C252.185 217.968 253.785 216.88 255.001 216.88C255.833 216.88 256.537 217.328 257.113 218.224C257.689 219.056 258.137 220.08 258.457 221.296C258.841 222.448 259.033 223.536 259.033 224.56C259.033 226.288 258.585 228.56 257.689 231.376C256.857 234.128 255.641 237.168 254.041 240.496C252.505 243.824 250.649 247.248 248.473 250.768C246.361 254.224 243.993 257.52 241.369 260.656C238.809 263.792 236.057 266.512 233.113 268.816C232.857 270.416 232.601 272.016 232.345 273.616C232.153 275.152 232.057 276.56 232.057 277.84C232.057 280.144 232.441 281.84 233.209 282.928C233.977 283.952 234.969 284.464 236.185 284.464C237.785 284.464 239.417 283.728 241.081 282.256C242.809 280.72 244.441 278.8 245.977 276.496C247.577 274.128 248.953 271.696 250.105 269.2L252.409 270.448C249.657 276.144 246.585 280.656 243.193 283.984C239.801 287.248 236.249 288.88 232.537 288.88ZM234.841 262.864C237.017 260.496 239.065 257.936 240.985 255.184C242.969 252.368 244.761 249.52 246.361 246.64C248.025 243.76 249.465 240.976 250.681 238.288C251.897 235.6 252.825 233.2 253.465 231.088C254.169 228.912 254.553 227.184 254.617 225.904C254.617 225.84 254.617 225.808 254.617 225.808C254.617 225.744 254.617 225.68 254.617 225.616C254.105 225.616 253.273 226.352 252.121 227.824C251.033 229.232 249.721 231.184 248.185 233.68C246.649 236.176 245.049 239.024 243.385 242.224C241.785 245.424 240.217 248.816 238.681 252.4C237.209 255.92 235.929 259.408 234.841 262.864ZM257.893 293.008C254.245 293.008 251.461 291.856 249.541 289.552C247.684 287.312 246.756 284.208 246.756 280.24C246.756 277.104 247.3 273.392 248.389 269.104C249.477 264.816 250.917 260.336 252.709 255.664C254.501 250.928 256.485 246.32 258.661 241.84C260.901 237.296 263.173 233.2 265.477 229.552C267.781 225.84 269.957 222.896 272.005 220.72C274.053 218.544 275.813 217.456 277.285 217.456C278.565 217.456 279.525 218.192 280.165 219.664C280.805 221.136 281.157 222.608 281.221 224.08C281.221 225.872 280.837 228.048 280.069 230.608C279.301 233.168 278.213 235.888 276.805 238.768C275.397 241.648 273.765 244.496 271.909 247.312C270.053 250.128 268.005 252.688 265.765 254.992C263.589 257.296 261.317 259.12 258.949 260.464C258.501 261.296 257.925 262.736 257.221 264.784C256.581 266.832 255.973 269.168 255.397 271.792C254.885 274.416 254.629 277.04 254.629 279.664C254.629 282.224 254.981 284.4 255.685 286.192C256.453 288.048 257.765 288.976 259.621 288.976C261.285 288.976 263.077 288.208 264.997 286.672C266.917 285.136 268.485 283.28 269.701 281.104C267.333 279.824 265.541 278.032 264.325 275.728C263.109 273.424 262.501 270.992 262.501 268.432C262.501 265.296 263.333 262.768 264.997 260.848C266.725 258.928 268.805 257.968 271.237 257.968C273.285 257.968 274.981 258.768 276.325 260.368C277.669 261.904 278.341 264.304 278.341 267.568C278.341 269.424 278.085 271.408 277.573 273.52C277.125 275.568 276.421 277.616 275.461 279.664C275.781 279.664 276.037 279.696 276.229 279.76C276.485 279.76 276.805 279.76 277.189 279.76C279.429 279.76 281.349 279.152 282.949 277.936C284.549 276.72 285.893 275.28 286.981 273.616C288.069 271.952 288.933 270.448 289.573 269.104L291.013 271.12C289.413 274.896 287.429 277.776 285.061 279.76C282.757 281.744 279.717 282.736 275.941 282.736C275.621 282.736 275.269 282.736 274.885 282.736C274.565 282.736 274.245 282.704 273.925 282.64C272.133 285.52 269.893 287.952 267.205 289.936C264.581 291.984 261.477 293.008 257.893 293.008ZM271.333 277.936C271.909 276.656 272.325 275.376 272.581 274.096C272.901 272.752 273.061 271.312 273.061 269.776C273.061 267.472 272.773 265.776 272.197 264.688C271.685 263.6 271.045 263.056 270.277 263.056C269.445 263.056 268.709 263.632 268.069 264.784C267.493 265.936 267.205 267.312 267.205 268.912C267.205 270.256 267.493 271.824 268.069 273.616C268.645 275.408 269.733 276.848 271.333 277.936ZM260.773 254.416C262.373 252.944 263.909 251.248 265.381 249.328C266.917 247.344 268.325 245.296 269.605 243.184C270.949 241.008 272.101 238.896 273.061 236.848C274.085 234.736 274.917 232.848 275.557 231.184C276.197 229.456 276.581 228.08 276.709 227.056C276.709 226.928 276.709 226.832 276.709 226.768C276.709 226.64 276.709 226.544 276.709 226.48C276.133 226.672 275.173 227.6 273.829 229.264C272.549 230.928 271.077 233.104 269.413 235.792C267.813 238.416 266.245 241.36 264.709 244.624C263.173 247.824 261.861 251.088 260.773 254.416ZM292.47 290.512C290.358 290.512 288.534 289.808 286.998 288.4C285.398 286.992 284.598 284.88 284.598 282.064C284.598 279.824 285.11 277.392 286.134 274.768C287.158 272.144 288.566 269.552 290.358 266.992C292.15 264.432 294.198 262.128 296.502 260.08C298.806 257.968 301.27 256.272 303.894 254.992C306.518 253.712 309.142 253.072 311.766 253.072C314.518 253.072 316.854 253.776 318.774 255.184C320.694 256.592 321.654 258.448 321.654 260.752C321.654 262.48 321.046 263.728 319.83 264.496C318.614 265.264 317.174 265.488 315.51 265.168C315.638 264.592 315.734 264.016 315.798 263.44C315.926 262.864 315.99 262.256 315.99 261.616C315.99 260.336 315.734 259.184 315.222 258.16C314.71 257.136 313.622 256.624 311.958 256.624C310.166 256.624 308.342 257.232 306.486 258.448C304.63 259.664 302.838 261.264 301.11 263.248C299.446 265.168 297.942 267.312 296.598 269.68C295.254 271.984 294.198 274.256 293.43 276.496C292.662 278.736 292.278 280.752 292.278 282.544C292.278 284.592 293.014 285.616 294.486 285.616C295.958 285.616 297.59 284.912 299.382 283.504C301.174 282.032 302.966 280.208 304.758 278.032C306.614 275.856 308.374 273.648 310.038 271.408C311.702 269.104 313.142 267.152 314.358 265.552C314.55 265.232 314.806 265.072 315.126 265.072C315.382 265.136 315.862 265.296 316.566 265.552C317.334 265.744 318.038 266.064 318.678 266.512C319.318 266.96 319.638 267.536 319.638 268.24C319.638 268.88 319.35 269.712 318.774 270.736C318.262 271.696 317.622 272.784 316.854 274C316.15 275.152 315.51 276.336 314.934 277.552C314.422 278.704 314.166 279.824 314.166 280.912C314.166 281.744 314.39 282.544 314.838 283.312C315.286 284.016 316.022 284.368 317.046 284.368C318.582 284.368 320.726 283.248 323.478 281.008C326.294 278.704 329.142 274.832 332.022 269.392L333.846 271.216C332.31 274.672 330.454 277.744 328.278 280.432C326.166 283.056 323.926 285.104 321.558 286.576C319.19 288.112 316.79 288.88 314.358 288.88C311.734 288.88 309.782 288.048 308.502 286.384C307.222 284.72 306.518 282.928 306.39 281.008C306.39 280.88 306.39 280.784 306.39 280.72C306.39 280.656 306.39 280.592 306.39 280.528C303.83 283.6 301.462 286.032 299.286 287.824C297.174 289.616 294.902 290.512 292.47 290.512ZM335.126 290.512C333.014 290.512 331.19 289.808 329.654 288.4C328.054 286.992 327.254 284.88 327.254 282.064C327.254 279.824 327.766 277.392 328.79 274.768C329.814 272.144 331.222 269.552 333.014 266.992C334.806 264.432 336.854 262.128 339.158 260.08C341.462 257.968 343.926 256.272 346.55 254.992C349.174 253.712 351.798 253.072 354.422 253.072C357.174 253.072 359.51 253.776 361.43 255.184C363.35 256.592 364.31 258.448 364.31 260.752C364.31 262.48 363.702 263.728 362.486 264.496C361.27 265.264 359.83 265.488 358.166 265.168C358.294 264.592 358.39 264.016 358.454 263.44C358.582 262.864 358.646 262.256 358.646 261.616C358.646 260.336 358.39 259.184 357.878 258.16C357.366 257.136 356.278 256.624 354.614 256.624C352.822 256.624 350.998 257.232 349.142 258.448C347.286 259.664 345.494 261.264 343.766 263.248C342.102 265.168 340.598 267.312 339.254 269.68C337.91 271.984 336.854 274.256 336.086 276.496C335.318 278.736 334.934 280.752 334.934 282.544C334.934 284.592 335.67 285.616 337.142 285.616C338.614 285.616 340.246 284.912 342.038 283.504C343.83 282.032 345.622 280.208 347.414 278.032C349.27 275.856 351.03 273.648 352.694 271.408C354.358 269.104 355.798 267.152 357.014 265.552C357.206 265.232 357.462 265.072 357.782 265.072C358.038 265.136 358.518 265.296 359.222 265.552C359.99 265.744 360.694 266.064 361.334 266.512C361.974 266.96 362.294 267.536 362.294 268.24C362.294 268.88 362.006 269.712 361.43 270.736C360.918 271.696 360.278 272.784 359.51 274C358.806 275.152 358.166 276.336 357.59 277.552C357.078 278.704 356.822 279.824 356.822 280.912C356.822 281.744 357.046 282.544 357.494 283.312C357.942 284.016 358.678 284.368 359.702 284.368C361.238 284.368 363.382 283.248 366.134 281.008C368.95 278.704 371.798 274.832 374.678 269.392L376.502 271.216C374.966 274.672 373.11 277.744 370.934 280.432C368.822 283.056 366.582 285.104 364.214 286.576C361.846 288.112 359.446 288.88 357.014 288.88C354.39 288.88 352.438 288.048 351.158 286.384C349.878 284.72 349.174 282.928 349.046 281.008C349.046 280.88 349.046 280.784 349.046 280.72C349.046 280.656 349.046 280.592 349.046 280.528C346.486 283.6 344.118 286.032 341.942 287.824C339.83 289.616 337.558 290.512 335.126 290.512ZM380.662 288.88C377.654 288.88 375.542 287.888 374.326 285.904C373.174 283.856 372.598 281.456 372.598 278.704C372.598 275.568 373.174 271.888 374.326 267.664C375.478 263.44 376.982 259.024 378.838 254.416C380.758 249.744 382.838 245.2 385.078 240.784C387.382 236.304 389.686 232.272 391.99 228.688C394.294 225.104 396.406 222.256 398.326 220.144C400.31 217.968 401.91 216.88 403.126 216.88C403.958 216.88 404.662 217.328 405.238 218.224C405.814 219.056 406.262 220.08 406.582 221.296C406.966 222.448 407.158 223.536 407.158 224.56C407.158 226.288 406.71 228.56 405.814 231.376C404.982 234.128 403.766 237.168 402.166 240.496C400.63 243.824 398.774 247.248 396.598 250.768C394.486 254.224 392.118 257.52 389.494 260.656C386.934 263.792 384.182 266.512 381.238 268.816C380.982 270.416 380.726 272.016 380.47 273.616C380.278 275.152 380.182 276.56 380.182 277.84C380.182 280.144 380.566 281.84 381.334 282.928C382.102 283.952 383.094 284.464 384.31 284.464C385.91 284.464 387.542 283.728 389.206 282.256C390.934 280.72 392.566 278.8 394.102 276.496C395.702 274.128 397.078 271.696 398.23 269.2L400.534 270.448C397.782 276.144 394.71 280.656 391.318 283.984C387.926 287.248 384.374 288.88 380.662 288.88ZM382.966 262.864C385.142 260.496 387.19 257.936 389.11 255.184C391.094 252.368 392.886 249.52 394.486 246.64C396.15 243.76 397.59 240.976 398.806 238.288C400.022 235.6 400.95 233.2 401.59 231.088C402.294 228.912 402.678 227.184 402.742 225.904C402.742 225.84 402.742 225.808 402.742 225.808C402.742 225.744 402.742 225.68 402.742 225.616C402.23 225.616 401.398 226.352 400.246 227.824C399.158 229.232 397.846 231.184 396.31 233.68C394.774 236.176 393.174 239.024 391.51 242.224C389.91 245.424 388.342 248.816 386.806 252.4C385.334 255.92 384.054 259.408 382.966 262.864ZM403.618 288.88C400.802 288.88 398.69 288.048 397.282 286.384C395.873 284.72 395.169 282.704 395.169 280.336C395.169 278.864 395.425 277.008 395.938 274.768C396.45 272.528 397.154 270.192 398.05 267.76C399.01 265.264 400.098 262.928 401.314 260.752C402.53 258.576 403.842 256.816 405.25 255.472C406.658 254.064 408.066 253.36 409.474 253.36C410.242 253.36 410.914 253.616 411.49 254.128C412.066 254.576 412.354 255.248 412.354 256.144C412.354 256.976 411.842 258.224 410.818 259.888C409.858 261.552 408.706 263.472 407.362 265.648C406.082 267.824 404.93 270.096 403.906 272.464C402.946 274.768 402.466 276.976 402.466 279.088C402.466 281.136 402.818 282.512 403.522 283.216C404.29 283.856 405.378 284.176 406.786 284.176C408.962 284.176 411.33 283.088 413.89 280.912C416.45 278.736 419.106 274.928 421.858 269.488L423.298 271.024C421.058 276.656 418.21 281.04 414.754 284.176C411.298 287.312 407.586 288.88 403.618 288.88ZM414.946 245.584C413.73 245.584 412.61 245.296 411.586 244.72C410.626 244.08 410.146 243.12 410.146 241.84C410.146 240.304 410.978 238.992 412.642 237.904C414.306 236.816 416.034 236.272 417.826 236.272C418.978 236.272 419.938 236.528 420.706 237.04C421.538 237.552 421.954 238.48 421.954 239.824C421.954 241.168 421.218 242.48 419.746 243.76C418.274 244.976 416.674 245.584 414.946 245.584Z"
              fill="#006D77"></path>
        <rect x="8" y="8" width="496" height="496" rx="56" stroke="#006D77" stroke-width="16"></rect>
    </svg>
    <style>@media (prefers-color-scheme: light) { :root { filter: none; } }
    </style>
</svg>