<svg xmlns="http://www.w3.org/2000/svg" version="1.1"
     width="64" height="64">
    <svg width="64" height="64" viewBox="0 0 64 64" fill="none" xmlns="http://www.w3.org/2000/svg">
        <g clip-path="url(#clip0_1026_4)">
            <rect width="64" height="64" rx="8" fill="white"></rect>
            <path d="M15.352 38.974C14.428 38.974 13.63 38.666 12.958 38.05C12.258 37.434 11.908 36.51 11.908 35.278C11.908 34.298 12.132 33.234 12.58 32.086C13.028 30.938 13.644 29.804 14.428 28.684C15.212 27.564 16.108 26.556 17.116 25.66C18.124 24.736 19.202 23.994 20.35 23.434C21.498 22.874 22.646 22.594 23.794 22.594C24.998 22.594 26.02 22.902 26.86 23.518C27.7 24.134 28.12 24.946 28.12 25.954C28.12 26.71 27.854 27.256 27.322 27.592C26.79 27.928 26.16 28.026 25.432 27.886C25.488 27.634 25.53 27.382 25.558 27.13C25.614 26.878 25.642 26.612 25.642 26.332C25.642 25.772 25.53 25.268 25.306 24.82C25.082 24.372 24.606 24.148 23.878 24.148C23.094 24.148 22.296 24.414 21.484 24.946C20.672 25.478 19.888 26.178 19.132 27.046C18.404 27.886 17.746 28.824 17.158 29.86C16.57 30.868 16.108 31.862 15.772 32.842C15.436 33.822 15.268 34.704 15.268 35.488C15.268 36.384 15.59 36.832 16.234 36.832C16.878 36.832 17.592 36.524 18.376 35.908C19.16 35.264 19.944 34.466 20.728 33.514C21.54 32.562 22.31 31.596 23.038 30.616C23.766 29.608 24.396 28.754 24.928 28.054C25.012 27.914 25.124 27.844 25.264 27.844C25.376 27.872 25.586 27.942 25.894 28.054C26.23 28.138 26.538 28.278 26.818 28.474C27.098 28.67 27.238 28.922 27.238 29.23C27.238 29.51 27.112 29.874 26.86 30.322C26.636 30.742 26.356 31.218 26.02 31.75C25.712 32.254 25.432 32.772 25.18 33.304C24.956 33.808 24.844 34.298 24.844 34.774C24.844 35.138 24.942 35.488 25.138 35.824C25.334 36.132 25.656 36.286 26.104 36.286C26.776 36.286 27.714 35.796 28.918 34.816C30.15 33.808 31.396 32.114 32.656 29.734L33.454 30.532C32.782 32.044 31.97 33.388 31.018 34.564C30.094 35.712 29.114 36.608 28.078 37.252C27.042 37.924 25.992 38.26 24.928 38.26C23.78 38.26 22.926 37.896 22.366 37.168C21.806 36.44 21.498 35.656 21.442 34.816C21.442 34.76 21.442 34.718 21.442 34.69C21.442 34.662 21.442 34.634 21.442 34.606C20.322 35.95 19.286 37.014 18.334 37.798C17.41 38.582 16.416 38.974 15.352 38.974ZM34.0141 38.974C33.0901 38.974 32.2921 38.666 31.6201 38.05C30.9201 37.434 30.5701 36.51 30.5701 35.278C30.5701 34.298 30.7941 33.234 31.2421 32.086C31.6901 30.938 32.3061 29.804 33.0901 28.684C33.8741 27.564 34.7701 26.556 35.7781 25.66C36.7861 24.736 37.8641 23.994 39.0121 23.434C40.1601 22.874 41.3081 22.594 42.4561 22.594C43.6601 22.594 44.6821 22.902 45.5221 23.518C46.3621 24.134 46.7821 24.946 46.7821 25.954C46.7821 26.71 46.5161 27.256 45.9841 27.592C45.4521 27.928 44.8221 28.026 44.0941 27.886C44.1501 27.634 44.1921 27.382 44.2201 27.13C44.2761 26.878 44.3041 26.612 44.3041 26.332C44.3041 25.772 44.1921 25.268 43.9681 24.82C43.7441 24.372 43.2681 24.148 42.5401 24.148C41.7561 24.148 40.9581 24.414 40.1461 24.946C39.3341 25.478 38.5501 26.178 37.7941 27.046C37.0661 27.886 36.4081 28.824 35.8201 29.86C35.2321 30.868 34.7701 31.862 34.4341 32.842C34.0981 33.822 33.9301 34.704 33.9301 35.488C33.9301 36.384 34.2521 36.832 34.8961 36.832C35.5401 36.832 36.2541 36.524 37.0381 35.908C37.8221 35.264 38.6061 34.466 39.3901 33.514C40.2021 32.562 40.9721 31.596 41.7001 30.616C42.4281 29.608 43.0581 28.754 43.5901 28.054C43.6741 27.914 43.7861 27.844 43.9261 27.844C44.0381 27.872 44.2481 27.942 44.5561 28.054C44.8921 28.138 45.2001 28.278 45.4801 28.474C45.7601 28.67 45.9001 28.922 45.9001 29.23C45.9001 29.51 45.7741 29.874 45.5221 30.322C45.2981 30.742 45.0181 31.218 44.6821 31.75C44.3741 32.254 44.0941 32.772 43.8421 33.304C43.6181 33.808 43.5061 34.298 43.5061 34.774C43.5061 35.138 43.6041 35.488 43.8001 35.824C43.9961 36.132 44.3181 36.286 44.7661 36.286C45.4381 36.286 46.3761 35.796 47.5801 34.816C48.8121 33.808 50.0581 32.114 51.3181 29.734L52.1161 30.532C51.4441 32.044 50.6321 33.388 49.6801 34.564C48.7561 35.712 47.7761 36.608 46.7401 37.252C45.7041 37.924 44.6541 38.26 43.5901 38.26C42.4421 38.26 41.5881 37.896 41.0281 37.168C40.4681 36.44 40.1601 35.656 40.1041 34.816C40.1041 34.76 40.1041 34.718 40.1041 34.69C40.1041 34.662 40.1041 34.634 40.1041 34.606C38.9841 35.95 37.9481 37.014 36.9961 37.798C36.0721 38.582 35.0781 38.974 34.0141 38.974Z"
                  fill="#3F51B5"></path>
        </g>
        <rect x="1" y="1" width="62" height="62" rx="7" stroke="#3F51B5" stroke-width="2"></rect>
        <defs>
            <clipPath id="SvgjsClipPath1000">
                <rect width="64" height="64" rx="8" fill="white"></rect>
            </clipPath>
        </defs>
    </svg>
    <style>@media (prefers-color-scheme: light) { :root { filter: none; } }
    </style>
</svg>