<svg width="64" height="64" viewBox="0 0 64 64" fill="none" xmlns="http://www.w3.org/2000/svg">
<rect width="64" height="64" rx="16" fill="white"/>
<path d="M8.784 37.658C8.476 37.658 8.21 37.5553 7.986 37.35C7.75267 37.1447 7.636 36.8367 7.636 36.426C7.636 36.0993 7.71067 35.7447 7.86 35.362C8.00933 34.9793 8.21467 34.6013 8.476 34.228C8.73733 33.8547 9.036 33.5187 9.372 33.22C9.708 32.912 10.0673 32.6647 10.45 32.478C10.8327 32.2913 11.2153 32.198 11.598 32.198C11.9993 32.198 12.34 32.3007 12.62 32.506C12.9 32.7113 13.04 32.982 13.04 33.318C13.04 33.57 12.9513 33.752 12.774 33.864C12.5967 33.976 12.3867 34.0087 12.144 33.962C12.1627 33.878 12.1767 33.794 12.186 33.71C12.2047 33.626 12.214 33.5373 12.214 33.444C12.214 33.2573 12.1767 33.0893 12.102 32.94C12.0273 32.7907 11.8687 32.716 11.626 32.716C11.3647 32.716 11.0987 32.8047 10.828 32.982C10.5573 33.1593 10.296 33.3927 10.044 33.682C9.80133 33.962 9.582 34.2747 9.386 34.62C9.19 34.956 9.036 35.2873 8.924 35.614C8.812 35.9407 8.756 36.2347 8.756 36.496C8.756 36.7947 8.86333 36.944 9.078 36.944C9.29267 36.944 9.53067 36.8413 9.792 36.636C10.0533 36.4213 10.3147 36.1553 10.576 35.838C10.8467 35.5207 11.1033 35.1987 11.346 34.872C11.5887 34.536 11.7987 34.2513 11.976 34.018C12.004 33.9713 12.0413 33.948 12.088 33.948C12.1253 33.9573 12.1953 33.9807 12.298 34.018C12.41 34.046 12.5127 34.0927 12.606 34.158C12.6993 34.2233 12.746 34.3073 12.746 34.41C12.746 34.5313 12.6807 34.6993 12.55 34.914C12.4193 35.1193 12.284 35.3433 12.144 35.586C12.0133 35.8287 11.948 36.0527 11.948 36.258C11.948 36.3793 11.9807 36.496 12.046 36.608C12.1113 36.7107 12.2187 36.762 12.368 36.762C12.592 36.762 12.9047 36.5987 13.306 36.272C13.7167 35.936 14.132 35.3713 14.552 34.578L14.818 34.844C14.4727 35.6093 14.0433 36.23 13.53 36.706C13.0167 37.182 12.4987 37.42 11.976 37.42C11.5933 37.42 11.3087 37.2987 11.122 37.056C10.9353 36.8133 10.8327 36.552 10.814 36.272V36.202C10.4407 36.65 10.0953 37.0047 9.778 37.266C9.47 37.5273 9.13867 37.658 8.784 37.658ZM15.4247 37.42C14.986 37.42 14.678 37.2753 14.5007 36.986C14.3327 36.6873 14.2487 36.3373 14.2487 35.936C14.2487 35.4787 14.3327 34.942 14.5007 34.326C14.6687 33.71 14.888 33.066 15.1587 32.394C15.4387 31.7127 15.742 31.05 16.0687 30.406C16.4047 29.7527 16.7407 29.1647 17.0767 28.642C17.4127 28.1193 17.7207 27.704 18.0007 27.396C18.29 27.0787 18.5234 26.92 18.7007 26.92C18.822 26.92 18.9247 26.9853 19.0087 27.116C19.0927 27.2373 19.158 27.3867 19.2047 27.564C19.2607 27.732 19.2887 27.8907 19.2887 28.04C19.2887 28.292 19.2234 28.6233 19.0927 29.034C18.9714 29.4353 18.794 29.8787 18.5607 30.364C18.3367 30.8493 18.066 31.3487 17.7487 31.862C17.4407 32.366 17.0954 32.8467 16.7127 33.304C16.3394 33.7613 15.938 34.158 15.5087 34.494C15.4714 34.7273 15.434 34.9607 15.3967 35.194C15.3687 35.418 15.3547 35.6233 15.3547 35.81C15.3547 36.146 15.4107 36.3933 15.5227 36.552C15.6347 36.7013 15.7794 36.776 15.9567 36.776C16.19 36.776 16.428 36.6687 16.6707 36.454C16.9227 36.23 17.1607 35.95 17.3847 35.614C17.618 35.2687 17.8187 34.914 17.9867 34.55L18.3227 34.732C17.9214 35.5627 17.4734 36.2207 16.9787 36.706C16.484 37.182 15.966 37.42 15.4247 37.42ZM15.7607 33.626C16.1527 33.1967 16.5214 32.7207 16.8667 32.198C17.212 31.6753 17.5154 31.1573 17.7767 30.644C18.0474 30.1213 18.2574 29.65 18.4067 29.23C18.556 28.8007 18.6354 28.4693 18.6447 28.236V28.194C18.57 28.194 18.4487 28.3013 18.2807 28.516C18.122 28.7213 17.9307 29.006 17.7067 29.37C17.4827 29.734 17.2494 30.1493 17.0067 30.616C16.7734 31.0827 16.5447 31.5773 16.3207 32.1C16.106 32.6133 15.9194 33.122 15.7607 33.626ZM20.4243 31.106C20.247 31.106 20.0837 31.064 19.9343 30.98C19.7943 30.8867 19.7243 30.7467 19.7243 30.56C19.7243 30.336 19.8457 30.1447 20.0883 29.986C20.331 29.8273 20.583 29.748 20.8443 29.748C21.0123 29.748 21.1523 29.7853 21.2643 29.86C21.3857 29.9347 21.4463 30.07 21.4463 30.266C21.4463 30.462 21.339 30.6533 21.1243 30.84C20.9097 31.0173 20.6763 31.106 20.4243 31.106ZM18.7723 37.42C18.3617 37.42 18.0537 37.2987 17.8483 37.056C17.643 36.8133 17.5403 36.5193 17.5403 36.174C17.5403 35.9593 17.5777 35.6887 17.6523 35.362C17.727 35.0353 17.8297 34.6947 17.9603 34.34C18.1003 33.976 18.259 33.6353 18.4363 33.318C18.6137 33.0007 18.805 32.744 19.0103 32.548C19.2157 32.3427 19.421 32.24 19.6263 32.24C19.7383 32.24 19.8363 32.2773 19.9203 32.352C20.0043 32.4173 20.0463 32.5153 20.0463 32.646C20.0463 32.7673 19.9717 32.9493 19.8223 33.192C19.6823 33.4347 19.5143 33.7147 19.3183 34.032C19.1317 34.3493 18.9637 34.6807 18.8143 35.026C18.6743 35.362 18.6043 35.684 18.6043 35.992C18.6043 36.2907 18.6557 36.4913 18.7583 36.594C18.8703 36.6873 19.029 36.734 19.2343 36.734C19.5517 36.734 19.897 36.5753 20.2703 36.258C20.6437 35.9407 21.031 35.3853 21.4323 34.592L21.6423 34.816C21.3157 35.6373 20.9003 36.2767 20.3963 36.734C19.8923 37.1913 19.351 37.42 18.7723 37.42ZM21.8543 37.658C21.5463 37.658 21.2803 37.5553 21.0563 37.35C20.823 37.1447 20.7063 36.8367 20.7063 36.426C20.7063 36.0993 20.781 35.7447 20.9303 35.362C21.0796 34.9793 21.285 34.6013 21.5463 34.228C21.8076 33.8547 22.1063 33.5187 22.4423 33.22C22.7783 32.912 23.1376 32.6647 23.5203 32.478C23.903 32.2913 24.2856 32.198 24.6683 32.198C25.0696 32.198 25.4103 32.3007 25.6903 32.506C25.9703 32.7113 26.1103 32.982 26.1103 33.318C26.1103 33.57 26.0216 33.752 25.8443 33.864C25.667 33.976 25.457 34.0087 25.2143 33.962C25.233 33.878 25.247 33.794 25.2563 33.71C25.275 33.626 25.2843 33.5373 25.2843 33.444C25.2843 33.2573 25.247 33.0893 25.1723 32.94C25.0976 32.7907 24.939 32.716 24.6963 32.716C24.435 32.716 24.169 32.8047 23.8983 32.982C23.6276 33.1593 23.3663 33.3927 23.1143 33.682C22.8716 33.962 22.6523 34.2747 22.4563 34.62C22.2603 34.956 22.1063 35.2873 21.9943 35.614C21.8823 35.9407 21.8263 36.2347 21.8263 36.496C21.8263 36.7947 21.9336 36.944 22.1483 36.944C22.363 36.944 22.601 36.8413 22.8623 36.636C23.1236 36.4213 23.385 36.1553 23.6463 35.838C23.917 35.5207 24.1736 35.1987 24.4163 34.872C24.659 34.536 24.869 34.2513 25.0463 34.018C25.0743 33.9713 25.1116 33.948 25.1583 33.948C25.1956 33.9573 25.2656 33.9807 25.3683 34.018C25.4803 34.046 25.583 34.0927 25.6763 34.158C25.7696 34.2233 25.8163 34.3073 25.8163 34.41C25.8163 34.5313 25.751 34.6993 25.6203 34.914C25.4896 35.1193 25.3543 35.3433 25.2143 35.586C25.0836 35.8287 25.0183 36.0527 25.0183 36.258C25.0183 36.3793 25.051 36.496 25.1163 36.608C25.1816 36.7107 25.289 36.762 25.4383 36.762C25.6623 36.762 25.975 36.5987 26.3763 36.272C26.787 35.936 27.2023 35.3713 27.6223 34.578L27.8883 34.844C27.543 35.6093 27.1136 36.23 26.6003 36.706C26.087 37.182 25.569 37.42 25.0463 37.42C24.6636 37.42 24.379 37.2987 24.1923 37.056C24.0056 36.8133 23.903 36.552 23.8843 36.272V36.202C23.511 36.65 23.1656 37.0047 22.8483 37.266C22.5403 37.5273 22.209 37.658 21.8543 37.658ZM28.495 37.42C28.0563 37.42 27.7483 37.2753 27.571 36.986C27.403 36.6873 27.319 36.3373 27.319 35.936C27.319 35.4787 27.403 34.942 27.571 34.326C27.739 33.71 27.9583 33.066 28.229 32.394C28.509 31.7127 28.8123 31.05 29.139 30.406C29.475 29.7527 29.811 29.1647 30.147 28.642C30.483 28.1193 30.791 27.704 31.071 27.396C31.3603 27.0787 31.5937 26.92 31.771 26.92C31.8923 26.92 31.995 26.9853 32.079 27.116C32.163 27.2373 32.2283 27.3867 32.275 27.564C32.331 27.732 32.359 27.8907 32.359 28.04C32.359 28.292 32.2937 28.6233 32.163 29.034C32.0417 29.4353 31.8643 29.8787 31.631 30.364C31.407 30.8493 31.1363 31.3487 30.819 31.862C30.511 32.366 30.1657 32.8467 29.783 33.304C29.4097 33.7613 29.0083 34.158 28.579 34.494C28.5417 34.7273 28.5043 34.9607 28.467 35.194C28.439 35.418 28.425 35.6233 28.425 35.81C28.425 36.146 28.481 36.3933 28.593 36.552C28.705 36.7013 28.8497 36.776 29.027 36.776C29.2603 36.776 29.4983 36.6687 29.741 36.454C29.993 36.23 30.231 35.95 30.455 35.614C30.6883 35.2687 30.889 34.914 31.057 34.55L31.393 34.732C30.9917 35.5627 30.5437 36.2207 30.049 36.706C29.5543 37.182 29.0363 37.42 28.495 37.42ZM28.831 33.626C29.223 33.1967 29.5917 32.7207 29.937 32.198C30.2823 31.6753 30.5857 31.1573 30.847 30.644C31.1177 30.1213 31.3277 29.65 31.477 29.23C31.6263 28.8007 31.7057 28.4693 31.715 28.236V28.194C31.6403 28.194 31.519 28.3013 31.351 28.516C31.1923 28.7213 31.001 29.006 30.777 29.37C30.553 29.734 30.3197 30.1493 30.077 30.616C29.8437 31.0827 29.615 31.5773 29.391 32.1C29.1763 32.6133 28.9897 33.122 28.831 33.626ZM32.1927 38.022C31.6607 38.022 31.2547 37.854 30.9747 37.518C30.704 37.1913 30.5687 36.7387 30.5687 36.16C30.5687 35.7027 30.648 35.1613 30.8067 34.536C30.9653 33.9107 31.1753 33.2573 31.4367 32.576C31.698 31.8853 31.9873 31.2133 32.3047 30.56C32.6313 29.8973 32.9627 29.3 33.2987 28.768C33.6347 28.2267 33.952 27.7973 34.2507 27.48C34.5493 27.1627 34.806 27.004 35.0207 27.004C35.2073 27.004 35.3473 27.1113 35.4407 27.326C35.534 27.5407 35.5853 27.7553 35.5947 27.97C35.5947 28.2313 35.5387 28.5487 35.4267 28.922C35.3147 29.2953 35.156 29.692 34.9507 30.112C34.7453 30.532 34.5073 30.9473 34.2367 31.358C33.966 31.7687 33.6673 32.142 33.3407 32.478C33.0233 32.814 32.692 33.08 32.3467 33.276C32.2813 33.3973 32.1973 33.6073 32.0947 33.906C32.0013 34.2047 31.9127 34.5453 31.8287 34.928C31.754 35.3107 31.7167 35.6933 31.7167 36.076C31.7167 36.4493 31.768 36.7667 31.8707 37.028C31.9827 37.2987 32.174 37.434 32.4447 37.434C32.6873 37.434 32.9487 37.322 33.2287 37.098C33.5087 36.874 33.7373 36.6033 33.9147 36.286C33.5693 36.0993 33.308 35.838 33.1307 35.502C32.9533 35.166 32.8647 34.8113 32.8647 34.438C32.8647 33.9807 32.986 33.612 33.2287 33.332C33.4807 33.052 33.784 32.912 34.1387 32.912C34.4373 32.912 34.6847 33.0287 34.8807 33.262C35.0767 33.486 35.1747 33.836 35.1747 34.312C35.1747 34.8813 35.0347 35.4693 34.7547 36.076C34.8013 36.076 34.8387 36.0807 34.8667 36.09C34.904 36.09 34.9507 36.09 35.0067 36.09C35.3333 36.09 35.6133 36.0013 35.8467 35.824C36.08 35.6467 36.276 35.4367 36.4347 35.194C36.5933 34.9513 36.7193 34.732 36.8127 34.536L37.0227 34.83C36.7893 35.3807 36.5 35.8007 36.1547 36.09C35.8187 36.3793 35.3753 36.524 34.8247 36.524C34.778 36.524 34.7267 36.524 34.6707 36.524C34.624 36.524 34.5773 36.5193 34.5307 36.51C34.2693 36.93 33.9427 37.2847 33.5507 37.574C33.168 37.8727 32.7153 38.022 32.1927 38.022ZM32.6127 32.394C32.902 32.1233 33.1773 31.8013 33.4387 31.428C33.7093 31.0547 33.952 30.672 34.1667 30.28C34.3907 29.888 34.568 29.524 34.6987 29.188C34.8293 28.852 34.9087 28.5907 34.9367 28.404V28.32C34.8527 28.348 34.7127 28.4833 34.5167 28.726C34.33 28.9687 34.1153 29.286 33.8727 29.678C33.6393 30.0607 33.4107 30.49 33.1867 30.966C32.9627 31.4327 32.7713 31.9087 32.6127 32.394ZM34.1527 35.824C34.2367 35.6373 34.2973 35.4507 34.3347 35.264C34.3813 35.068 34.4047 34.858 34.4047 34.634C34.4047 34.298 34.3627 34.0507 34.2787 33.892C34.204 33.7333 34.1107 33.654 33.9987 33.654C33.8773 33.654 33.77 33.738 33.6767 33.906C33.5927 34.074 33.5507 34.2747 33.5507 34.508C33.5507 34.704 33.5927 34.9327 33.6767 35.194C33.7607 35.4553 33.9193 35.6653 34.1527 35.824ZM37.2352 37.658C36.9272 37.658 36.6612 37.5553 36.4372 37.35C36.2038 37.1447 36.0872 36.8367 36.0872 36.426C36.0872 36.0993 36.1618 35.7447 36.3112 35.362C36.4605 34.9793 36.6658 34.6013 36.9272 34.228C37.1885 33.8547 37.4872 33.5187 37.8232 33.22C38.1592 32.912 38.5185 32.6647 38.9012 32.478C39.2838 32.2913 39.6665 32.198 40.0492 32.198C40.4505 32.198 40.7912 32.3007 41.0712 32.506C41.3512 32.7113 41.4912 32.982 41.4912 33.318C41.4912 33.57 41.4025 33.752 41.2252 33.864C41.0478 33.976 40.8378 34.0087 40.5952 33.962C40.6138 33.878 40.6278 33.794 40.6372 33.71C40.6558 33.626 40.6652 33.5373 40.6652 33.444C40.6652 33.2573 40.6278 33.0893 40.5532 32.94C40.4785 32.7907 40.3198 32.716 40.0772 32.716C39.8158 32.716 39.5498 32.8047 39.2792 32.982C39.0085 33.1593 38.7472 33.3927 38.4952 33.682C38.2525 33.962 38.0332 34.2747 37.8372 34.62C37.6412 34.956 37.4872 35.2873 37.3752 35.614C37.2632 35.9407 37.2072 36.2347 37.2072 36.496C37.2072 36.7947 37.3145 36.944 37.5292 36.944C37.7438 36.944 37.9818 36.8413 38.2432 36.636C38.5045 36.4213 38.7658 36.1553 39.0272 35.838C39.2978 35.5207 39.5545 35.1987 39.7972 34.872C40.0398 34.536 40.2498 34.2513 40.4272 34.018C40.4552 33.9713 40.4925 33.948 40.5392 33.948C40.5765 33.9573 40.6465 33.9807 40.7492 34.018C40.8612 34.046 40.9638 34.0927 41.0572 34.158C41.1505 34.2233 41.1972 34.3073 41.1972 34.41C41.1972 34.5313 41.1318 34.6993 41.0012 34.914C40.8705 35.1193 40.7352 35.3433 40.5952 35.586C40.4645 35.8287 40.3992 36.0527 40.3992 36.258C40.3992 36.3793 40.4318 36.496 40.4972 36.608C40.5625 36.7107 40.6698 36.762 40.8192 36.762C41.0432 36.762 41.3558 36.5987 41.7572 36.272C42.1678 35.936 42.5832 35.3713 43.0032 34.578L43.2692 34.844C42.9238 35.6093 42.4945 36.23 41.9812 36.706C41.4678 37.182 40.9498 37.42 40.4272 37.42C40.0445 37.42 39.7598 37.2987 39.5732 37.056C39.3865 36.8133 39.2838 36.552 39.2652 36.272V36.202C38.8918 36.65 38.5465 37.0047 38.2292 37.266C37.9212 37.5273 37.5898 37.658 37.2352 37.658ZM43.4559 37.658C43.1479 37.658 42.8819 37.5553 42.6579 37.35C42.4245 37.1447 42.3079 36.8367 42.3079 36.426C42.3079 36.0993 42.3825 35.7447 42.5319 35.362C42.6812 34.9793 42.8865 34.6013 43.1479 34.228C43.4092 33.8547 43.7079 33.5187 44.0439 33.22C44.3799 32.912 44.7392 32.6647 45.1219 32.478C45.5045 32.2913 45.8872 32.198 46.2699 32.198C46.6712 32.198 47.0119 32.3007 47.2919 32.506C47.5719 32.7113 47.7119 32.982 47.7119 33.318C47.7119 33.57 47.6232 33.752 47.4459 33.864C47.2685 33.976 47.0585 34.0087 46.8159 33.962C46.8345 33.878 46.8485 33.794 46.8579 33.71C46.8765 33.626 46.8859 33.5373 46.8859 33.444C46.8859 33.2573 46.8485 33.0893 46.7739 32.94C46.6992 32.7907 46.5405 32.716 46.2979 32.716C46.0365 32.716 45.7705 32.8047 45.4999 32.982C45.2292 33.1593 44.9679 33.3927 44.7159 33.682C44.4732 33.962 44.2539 34.2747 44.0579 34.62C43.8619 34.956 43.7079 35.2873 43.5959 35.614C43.4839 35.9407 43.4279 36.2347 43.4279 36.496C43.4279 36.7947 43.5352 36.944 43.7499 36.944C43.9645 36.944 44.2025 36.8413 44.4639 36.636C44.7252 36.4213 44.9865 36.1553 45.2479 35.838C45.5185 35.5207 45.7752 35.1987 46.0179 34.872C46.2605 34.536 46.4705 34.2513 46.6479 34.018C46.6759 33.9713 46.7132 33.948 46.7599 33.948C46.7972 33.9573 46.8672 33.9807 46.9699 34.018C47.0819 34.046 47.1845 34.0927 47.2779 34.158C47.3712 34.2233 47.4179 34.3073 47.4179 34.41C47.4179 34.5313 47.3525 34.6993 47.2219 34.914C47.0912 35.1193 46.9559 35.3433 46.8159 35.586C46.6852 35.8287 46.6199 36.0527 46.6199 36.258C46.6199 36.3793 46.6525 36.496 46.7179 36.608C46.7832 36.7107 46.8905 36.762 47.0399 36.762C47.2639 36.762 47.5765 36.5987 47.9779 36.272C48.3885 35.936 48.8039 35.3713 49.2239 34.578L49.4899 34.844C49.1445 35.6093 48.7152 36.23 48.2019 36.706C47.6885 37.182 47.1705 37.42 46.6479 37.42C46.2652 37.42 45.9805 37.2987 45.7939 37.056C45.6072 36.8133 45.5045 36.552 45.4859 36.272V36.202C45.1125 36.65 44.7672 37.0047 44.4499 37.266C44.1419 37.5273 43.8105 37.658 43.4559 37.658ZM50.0966 37.42C49.6579 37.42 49.3499 37.2753 49.1726 36.986C49.0046 36.6873 48.9206 36.3373 48.9206 35.936C48.9206 35.4787 49.0046 34.942 49.1726 34.326C49.3406 33.71 49.5599 33.066 49.8306 32.394C50.1106 31.7127 50.4139 31.05 50.7406 30.406C51.0766 29.7527 51.4126 29.1647 51.7486 28.642C52.0846 28.1193 52.3926 27.704 52.6726 27.396C52.9619 27.0787 53.1952 26.92 53.3726 26.92C53.4939 26.92 53.5966 26.9853 53.6806 27.116C53.7646 27.2373 53.8299 27.3867 53.8766 27.564C53.9326 27.732 53.9606 27.8907 53.9606 28.04C53.9606 28.292 53.8952 28.6233 53.7646 29.034C53.6432 29.4353 53.4659 29.8787 53.2326 30.364C53.0086 30.8493 52.7379 31.3487 52.4206 31.862C52.1126 32.366 51.7672 32.8467 51.3846 33.304C51.0112 33.7613 50.6099 34.158 50.1806 34.494C50.1432 34.7273 50.1059 34.9607 50.0686 35.194C50.0406 35.418 50.0266 35.6233 50.0266 35.81C50.0266 36.146 50.0826 36.3933 50.1946 36.552C50.3066 36.7013 50.4512 36.776 50.6286 36.776C50.8619 36.776 51.0999 36.6687 51.3426 36.454C51.5946 36.23 51.8326 35.95 52.0566 35.614C52.2899 35.2687 52.4906 34.914 52.6586 34.55L52.9946 34.732C52.5932 35.5627 52.1452 36.2207 51.6506 36.706C51.1559 37.182 50.6379 37.42 50.0966 37.42ZM50.4326 33.626C50.8246 33.1967 51.1932 32.7207 51.5386 32.198C51.8839 31.6753 52.1872 31.1573 52.4486 30.644C52.7192 30.1213 52.9292 29.65 53.0786 29.23C53.2279 28.8007 53.3072 28.4693 53.3166 28.236V28.194C53.2419 28.194 53.1206 28.3013 52.9526 28.516C52.7939 28.7213 52.6026 29.006 52.3786 29.37C52.1546 29.734 51.9212 30.1493 51.6786 30.616C51.4452 31.0827 51.2166 31.5773 50.9926 32.1C50.7779 32.6133 50.5912 33.122 50.4326 33.626ZM55.0962 31.106C54.9189 31.106 54.7556 31.064 54.6062 30.98C54.4662 30.8867 54.3962 30.7467 54.3962 30.56C54.3962 30.336 54.5176 30.1447 54.7602 29.986C55.0029 29.8273 55.2549 29.748 55.5162 29.748C55.6842 29.748 55.8242 29.7853 55.9362 29.86C56.0576 29.9347 56.1182 30.07 56.1182 30.266C56.1182 30.462 56.0109 30.6533 55.7962 30.84C55.5816 31.0173 55.3482 31.106 55.0962 31.106ZM53.4442 37.42C53.0336 37.42 52.7256 37.2987 52.5202 37.056C52.3149 36.8133 52.2122 36.5193 52.2122 36.174C52.2122 35.9593 52.2496 35.6887 52.3242 35.362C52.3989 35.0353 52.5016 34.6947 52.6322 34.34C52.7722 33.976 52.9309 33.6353 53.1082 33.318C53.2856 33.0007 53.4769 32.744 53.6822 32.548C53.8876 32.3427 54.0929 32.24 54.2982 32.24C54.4102 32.24 54.5082 32.2773 54.5922 32.352C54.6762 32.4173 54.7182 32.5153 54.7182 32.646C54.7182 32.7673 54.6436 32.9493 54.4942 33.192C54.3542 33.4347 54.1862 33.7147 53.9902 34.032C53.8036 34.3493 53.6356 34.6807 53.4862 35.026C53.3462 35.362 53.2762 35.684 53.2762 35.992C53.2762 36.2907 53.3276 36.4913 53.4302 36.594C53.5422 36.6873 53.7009 36.734 53.9062 36.734C54.2236 36.734 54.5689 36.5753 54.9422 36.258C55.3156 35.9407 55.7029 35.3853 56.1042 34.592L56.3142 34.816C55.9876 35.6373 55.5722 36.2767 55.0682 36.734C54.5642 37.1913 54.0229 37.42 53.4442 37.42Z" fill="#009688"/>
</svg>
